<?xml version="1.0" standalone="no"?>
<!DOCTYPE svg PUBLIC "-//W3C//DTD SVG 1.1//EN" "http://www.w3.org/Graphics/SVG/1.1/DTD/svg11.dtd" >
<svg xmlns="http://www.w3.org/2000/svg">
<metadata>
This is a custom SVG webfont generated by Font Squirrel.
Copyright   : Copyright c 199297 HewlettPackard All rights reserved
</metadata>
<defs>
<font id="CGOmegaRegular" horiz-adv-x="1133" >
<font-face units-per-em="2048" ascent="1638" descent="-410" />
<missing-glyph horiz-adv-x="566" />
<glyph unicode=" "  horiz-adv-x="566" />
<glyph unicode="&#x09;" horiz-adv-x="566" />
<glyph unicode="&#xa0;" horiz-adv-x="566" />
<glyph unicode="!" horiz-adv-x="566" d="M172 93q0 50 34 84.5t84 34.5t84 -34.5t34 -84.5t-34 -84t-84 -34t-84 34t-34 84zM186 1257q0 68 27 105t77 37t77.5 -37t27.5 -105l-1 -27l-78 -916h-26h-26l-77 915z" />
<glyph unicode="&#x22;" horiz-adv-x="831" d="M166 1318q0 53 22 81.5t63 28.5t63 -28.5t22 -81.5q1 -14 -2 -27l-49 -403h-68l-50 403zM504 1318q0 53 22 81.5t63 28.5t63 -28.5t22 -81.5q1 -14 -2 -27l-49 -403h-68l-50 403z" />
<glyph unicode="#" d="M50 430q4 36 4 62t-4 61q19 -6 71.5 -10t109.5 -4h81l54 308h-66q-57 0 -109.5 -4t-71.5 -10q4 36 4 62t-4 61q19 -6 71.5 -10t109.5 -4h82l46 264q11 57 16 112.5t2 78.5q39 -4 67 -4q27 0 65 4q-8 -15 -21.5 -70t-26.5 -121l-46 -264h252l46 264q11 57 16 112.5t2 78.5 q39 -4 67 -4q27 0 65 4q-8 -15 -21.5 -70t-26.5 -121l-46 -264h61q57 0 109.5 4t71.5 10q-3 -35 -3 -61t3 -62q-19 6 -71.5 10t-109.5 4h-78l-54 -308h63q57 0 109.5 4t71.5 10q-3 -35 -3 -61t3 -62q-19 6 -71.5 10t-109.5 4h-79l-49 -281q-11 -57 -16 -112.5t-2 -78.5 q-38 5 -66 5t-66 -5q8 15 21.5 70t26.5 121l49 281h-252l-49 -281q-11 -57 -16 -112.5t-2 -78.5q-38 5 -66 5t-66 -5q8 15 21.5 70t26.5 121l49 281h-64q-57 0 -109.5 -4t-71.5 -10zM414 539h252l53 308h-252z" />
<glyph unicode="$" d="M152 101q24 47 35 83t17 88q42 -111 121 -161q68 -43 175 -49q4 254 4 572q-178 55 -261 138q-91 90 -91 237q0 155 126 262q95 80 221 101l-3 106q0 10 -4 22.5t-9 21.5q39 -5 67 -5q27 0 65 5q-5 -9 -8.5 -21.5t-3.5 -22.5l-2 -100q89 -2 171 -30q88 -29 161 -86 q-31 -44 -47 -79.5t-31 -87.5q-53 96 -120 145q-62 46 -137 48l-3 -487q199 -65 293 -152q103 -97 103 -251q0 -179 -137 -303q-108 -98 -255 -118l3 -164q0 -10 4 -23t9 -21q-38 4 -65 4q-28 0 -67 -4q5 8 8.5 21t3.5 23l4 159q-111 3 -196 33q-93 32 -151 96zM306 1059 q0 -90 58 -149q48 -48 140 -82q0 249 -4 453v-1q-67 -15 -116 -56q-78 -64 -78 -165zM595 604q-1 -300 3 -539q94 15 159 73q85 77 85 198q0 102 -72 171q-59 58 -175 97z" />
<glyph unicode="%" horiz-adv-x="1813" d="M200 1059q0 142 83 234t211 92q129 0 212 -92t83 -234t-83 -233.5t-212 -91.5q-128 0 -211 91.5t-83 233.5zM335 1059q0 -125 41 -191.5t118 -66.5q78 0 119 66.5t41 191.5q0 126 -41 192.5t-119 66.5q-77 0 -118 -66.5t-41 -192.5zM609 -48q101 290 240 727t222 732 q39 -9 67 -9t67 9q-101 -290 -240 -727t-222 -732q-39 10 -67 10t-67 -10zM1026 317q0 142 83 234t211 92q129 0 212 -92t83 -234t-83 -233.5t-212 -91.5q-128 0 -211 91.5t-83 233.5zM1161 317q0 -125 41 -191.5t118 -66.5q78 0 119 66.5t41 191.5q0 126 -41 192.5 t-119 66.5q-77 0 -118 -66.5t-41 -192.5z" />
<glyph unicode="&#x26;" horiz-adv-x="1473" d="M170 328q0 139 105 255q89 97 249 175q-47 71 -79 139q-51 108 -51 176q0 133 78.5 215.5t204.5 82.5t204.5 -62.5t78.5 -162.5q0 -101 -93 -213q-72 -86 -178 -154l1 -1l321 -394l30 -36l54 80q96 150 169 325q23 -26 41 -44t44 -41q-88 -159 -196 -304l-60 -77l36 -40 l199 -221q44 -51 21 -31q-55 7 -124 7t-124 -2l-124 162l-18 -16q-105 -90 -202 -132t-200 -42q-173 0 -280 98.5t-107 257.5zM347 378q0 -136 79 -218q79 -81 211 -81q59 0 133.5 34t140.5 90l21 18l-354 462l-11 14q-91 -52 -146 -120q-74 -91 -74 -199zM530 1106 q0 -58 44 -148q29 -60 71 -120q68 49 115 110q67 88 67 168q0 75 -40.5 120.5t-107.5 45.5q-68 0 -109 -48q-40 -48 -40 -128z" />
<glyph unicode="'" horiz-adv-x="566" d="M204 1318q0 53 22 81.5t63 28.5t63 -28.5t22 -81.5q1 -14 -2 -27l-49 -403h-68l-50 403z" />
<glyph unicode="(" horiz-adv-x="566" d="M148 590q0 243 75.5 444t239.5 393l54 -49q-122 -162 -178 -351t-56 -437q0 -249 56 -438t178 -351l-54 -49q-164 192 -240 394q-75 201 -75 444z" />
<glyph unicode=")" horiz-adv-x="566" d="M56 -199q121 162 177 351t56 437q0 250 -56 439t-177 350l54 49q163 -192 239 -393q75 -201 75 -445t-75.5 -445t-238.5 -392z" />
<glyph unicode="*" d="M213 912q103 36 176 68q51 23 116 58l-116 55q-72 32 -175 68q26 31 40.5 56t27.5 63q83 -71 147 -117q47 -33 109 -71l-8 130q-8 79 -28 186q40 -8 69 -8t68 8q-20 -107 -28 -186q-6 -57 -7 -131l107 71q65 46 148 117q13 -39 27.5 -64t40.5 -55q-103 -36 -176 -68 q-51 -23 -116 -58l116 -55q72 -32 175 -68q-26 -31 -40.5 -56t-27.5 -63q-83 71 -147 117l-108 71q1 -73 7 -130q8 -79 28 -186q-40 8 -69 8t-68 -8q20 107 28 186q6 58 7 131l-107 -71q-65 -46 -148 -117q-13 39 -27.5 64t-40.5 55z" />
<glyph unicode="+" horiz-adv-x="1813" d="M376 446v108h474v474h108v-474h474v-108h-474v-474h-108v474h-474z" />
<glyph unicode="," horiz-adv-x="566" d="M89 -360l149 473l10 24q21 49 53 66.5t70 0.5q37 -17 45.5 -53t-13.5 -84l-12 -23l-255 -425z" />
<glyph unicode="-" horiz-adv-x="566" d="M30 422v143h512v-143h-512z" />
<glyph unicode="." horiz-adv-x="566" d="M168 93q0 50 34 84.5t84 34.5t84 -34.5t34 -84.5t-34 -84t-84 -34t-84 34t-34 84z" />
<glyph unicode="/" horiz-adv-x="566" d="M-56 -28q10 13 35 69.5t51 126.5l203 578l194 580q21 64 35.5 121.5t14.5 77.5q48 -5 83 -5q34 0 81 5q-12 -16 -37 -72.5t-49 -123.5l-203 -578l-194 -580q-21 -60 -35.5 -118t-14.5 -81q-48 6 -82 6t-82 -6z" />
<glyph unicode="0" d="M88 659q0 335 132 527t361 192q220 0 345.5 -184t125.5 -505q0 -334 -131.5 -525.5t-361.5 -191.5q-219 0 -345 183.5t-126 503.5zM274 665q1 -305 74 -455t222 -150q150 0 223.5 154.5t72.5 468.5q1 306 -72.5 456.5t-223.5 150.5q-149 0 -222 -155t-74 -470z" />
<glyph unicode="1" d="M220 1153q101 36 247 103q146 68 240 122q-10 -276 -10 -689q0 -246 4 -442q4 -131 6.5 -181.5t6.5 -70.5q-44 5 -100 5t-100 -5q4 19 7 70q2 50 6 182q4 196 4 442q0 283 -5 501l-4 -1q-135 -73 -221 -128z" />
<glyph unicode="2" d="M82 6l370 381q167 172 241 317t74 299q0 142 -59.5 215.5t-173.5 73.5q-98 0 -167 -64.5t-95 -179.5q-21 40 -39 68t-45 64q56 88 158.5 143t209.5 55q180 0 290 -102q109 -101 109 -267q0 -146 -88 -283q-88 -136 -353 -401l-184 -184l200 -1h85q123 0 225.5 5t127.5 12 q-7 -51 -7 -88t7 -89q-15 5 -59.5 9.5t-94.5 5.5q-125 5 -282 5q-263 0 -438 -14l-6 10z" />
<glyph unicode="3" d="M140 48q11 47 16 81t9 81q59 -79 127.5 -119t145.5 -40q158 0 241.5 88.5t83.5 254.5q0 134 -76 206q-65 61 -182 70q-25 2 -58.5 -3.5t-57.5 -14.5q5 32 5 56t-5 56q26 -10 60 -14t57 0q83 14 132 68q66 73 66 210q0 131 -53.5 201t-154.5 70q-65 0 -128 -45.5 t-118 -131.5q-12 39 -23 66t-30 63q71 58 158.5 92.5t165.5 34.5q173 0 272 -85.5t99 -235.5q0 -158 -94 -249q-58 -55 -144 -77q120 -20 196 -85q107 -91 107 -250q0 -198 -139 -311t-382 -113q-81 0 -166 22t-130 54z" />
<glyph unicode="4" d="M29 383l349 477l254 368q20 29 38.5 64.5t25.5 56.5q55 -5 94 -5t93 5q-5 -16 -10 -58t-6 -86q-6 -227 -6 -530v-161h78q32 0 62 2.5t42 6.5q-5 -48 -5 -83q0 -36 5 -85q-13 5 -38 10t-49 7l-94 4l3 -129q4 -132 6.5 -182.5t6.5 -69.5q-44 5 -99 5t-98 -5q13 88 17 166.5 t4 219.5l-159 2q-301 0 -502 -18l-6 9zM238 517l464 -2v670l-222 -313z" />
<glyph unicode="5" d="M138 55q17 44 27.5 76t21.5 77q46 -68 121.5 -110t151.5 -42q147 0 235 103t88 275q0 159 -71.5 243.5t-206.5 84.5q-55 0 -115 -27t-110 -74l-17 7q20 139 20 347q0 209 -20 348q135 -17 337 -17q133 1 237 7q32 1 61 4.5t39 7.5q-6 -50 -6 -87t6 -88q-13 6 -96.5 10 t-191.5 4h-49h-226l-16 -408l9 4q96 48 198 48q184 0 298 -106t114 -277q0 -230 -136.5 -361.5t-375.5 -131.5q-94 0 -172.5 20t-154.5 63z" />
<glyph unicode="6" d="M125 560q0 352 172 585t430 233q33 0 59 -2t49 -6q8 -30 16 -51t22 -50q-18 8 -53.5 14.5t-65.5 6.5q-204 0 -324 -212q-97 -172 -115 -443q21 35 49 66q112 124 274 124q190 0 299 -110t109 -302t-132 -316.5t-336 -124.5q-209 0 -331 159t-122 429zM327 388 q0 -147 73.5 -239t190.5 -92t190.5 96.5t73.5 250.5q0 161 -65.5 247t-188.5 86q-119 0 -197 -99q-77 -98 -77 -250z" />
<glyph unicode="7" d="M173 -14q14 13 49 63.5t71 111.5l599 1020q-108 5 -240 4l-210 -3q-75 0 -140.5 -4t-85.5 -10q7 56 7 97t-7 97q25 -6 183 -10.5t363 -4.5l324 3l4 -9l5 -10q-161 -261 -382 -664q-164 -297 -278 -527q-22 -42 -39 -87t-20 -67q-59 8 -102 8q-42 0 -101 -8z" />
<glyph unicode="8" d="M103 380q0 191 122 300q65 58 155 85q-57 22 -102 57q-107 85 -107 222q0 149 107.5 241.5t280.5 92.5t280.5 -92.5t107.5 -241.5q0 -137 -108 -222q-45 -35 -101 -56q91 -28 156 -86q122 -109 122 -300q0 -182 -126.5 -295t-330.5 -113q-203 0 -329.5 113t-126.5 295z M289 369q0 -140 73.5 -224.5t196.5 -84.5t197 84.5t74 224.5q0 159 -74 255q-74 95 -197 95t-196.5 -95.5t-73.5 -254.5zM347 1043q0 -107 58 -172q58 -64 154 -64t154 64.5t58 171.5t-60 177t-152 70q-90 0 -151 -71t-61 -176z" />
<glyph unicode="9" d="M117 937q0 192 125.5 316.5t319.5 124.5q215 0 340.5 -159t125.5 -429q0 -352 -175 -585t-438 -233q-31 0 -74.5 9t-80.5 23q-11 41 -21 70t-26 69q66 -43 118 -63.5t96 -20.5q191 0 303 212q92 172 107 442q-20 -34 -47 -64q-110 -124 -270 -124q-188 0 -295.5 110 t-107.5 302zM308 946q0 -161 64 -247t185 -86q117 0 193 99q76 98 76 250q0 147 -72 239t-187 92t-187 -96.5t-72 -250.5z" />
<glyph unicode=":" horiz-adv-x="566" d="M168 93q0 50 34 84.5t84 34.5t84 -34.5t34 -84.5t-34 -84t-84 -34t-84 34t-34 84zM168 788q0 50 34 84.5t84 34.5t84 -34.5t34 -84.5t-34 -84t-84 -34t-84 34t-34 84z" />
<glyph unicode=";" horiz-adv-x="566" d="M89 -360l149 473l10 24q21 49 53 66.5t70 0.5q37 -17 45.5 -53t-13.5 -84l-12 -23l-255 -425zM171 788q0 50 34 84.5t84 34.5t84 -34.5t34 -84.5t-34 -84t-84 -34t-84 34t-34 84z" />
<glyph unicode="&#x3c;" horiz-adv-x="2039" d="M410 542v72v72l1225 549v-145l-1066 -475l1066 -479v-145z" />
<glyph unicode="=" horiz-adv-x="1813" d="M391 325v109h1056v-109h-1056zM391 567v109h1056v-109h-1056z" />
<glyph unicode="&#x3e;" horiz-adv-x="2039" d="M410 -9v145l1066 479l-1066 475v145l1225 -549v-72v-72z" />
<glyph unicode="?" horiz-adv-x="793" d="M181 1333q54 31 111.5 48.5t103.5 17.5q131 0 212 -75t81 -196q0 -91 -42.5 -175t-147.5 -199q-81 -89 -113 -141t-32 -95q0 -51 27.5 -82t73.5 -31q25 0 48.5 8t41.5 23l-44 -111q-11 -2 -21 -3t-25 -1q-107 0 -174 62.5t-67 163.5q0 83 35 155.5t122 167.5 q108 118 143 173.5t35 108.5q0 70 -50 118t-123 48q-42 0 -93 -27.5t-85 -68.5zM282 93q0 50 34 84.5t84 34.5t84 -34.5t34 -84.5t-34 -84t-84 -34t-84 34t-34 84z" />
<glyph unicode="@" horiz-adv-x="1813" d="M101 391q0 372 273.5 650.5t637.5 278.5q313 0 529 -190.5t216 -466.5q0 -265 -166.5 -464t-388.5 -199q-110 0 -148 104q-8 22 -11 44l-5 -4q-147 -124 -284 -124q-117 0 -188 72t-70 191q0 256 170.5 474.5t371.5 218.5q157 0 230 -142l38 104h185q-87 -187 -204 -468 l-95 -233q-22 -53 -9 -89t54 -36q144 0 284 182t140 369q0 230 -173 388.5t-424 158.5q-330 0 -577.5 -242t-247.5 -564q0 -257 199 -420t512 -163q160 0 317.5 55t288.5 156l69 -42q-159 -136 -330.5 -204t-355.5 -68q-369 0 -603.5 188.5t-234.5 484.5zM661 241 q0 -67 35 -102.5t101 -35.5q92 0 166.5 89.5t164.5 307.5q79 191 66.5 294t-115.5 103q-125 0 -271.5 -229.5t-146.5 -426.5z" />
<glyph unicode="A" horiz-adv-x="1360" d="M24 -5q10 14 36 65l93 187l208 446q190 419 302 706h24h25q113 -284 296 -704l199 -448l119 -252q-50 5 -113 5t-112 -5q-13 53 -30.5 103.5t-58.5 148.5l-114 274q-113 15 -255 17q-30 1 -59 1q-110 0 -198 -18q-64 -146 -114 -274q-37 -90 -54 -140.5t-31 -111.5 q-36 5 -82 5q-45 0 -81 -5zM442 653q80 -12 173 -12h27q107 2 199 14l-20 48l-177 407l-180 -405z" />
<glyph unicode="B" horiz-adv-x="1246" d="M183 -5q4 19 7 70q2 50 6 182q4 203 4 452v83q0 203 -4 370q-4 132 -6.5 182.5t-6.5 69.5l99 -5l293 5q242 0 362.5 -76.5t120.5 -229.5q0 -160 -145 -260q-79 -54 -185 -79q151 -21 241 -84q135 -93 135 -280q0 -178 -156 -289t-407 -111l-259 5zM374 110q59 -9 126 -9 q200 0 302.5 79.5t102.5 235.5q0 137 -100 206.5t-295 69.5h-136v-582zM374 796h125q164 0 262 73.5t98 195.5q0 106 -90 169.5t-241 63.5h-12q-76 0 -142 -12v-490z" />
<glyph unicode="C" horiz-adv-x="1360" d="M90 676q0 335 209.5 543t546.5 208q129 0 239.5 -22t220.5 -69q-16 -49 -26 -84.5t-21 -85.5l-33 -1q-67 79 -169.5 126t-207.5 47q-249 0 -399 -179t-150 -477q0 -270 152 -445.5t385 -175.5q122 0 236.5 44.5t191.5 121.5l17 -22q-7 -34 -11 -60t-6 -61 q-106 -58 -217 -85t-247 -27q-317 0 -514 195t-197 509z" />
<glyph unicode="D" horiz-adv-x="1586" d="M203 -5q4 19 7 70q2 50 6 182q4 203 4 452q0 253 -4 453q-4 132 -6.5 182.5t-6.5 69.5l104 -5l489 5q335 0 515.5 -171.5t180.5 -488.5q0 -349 -216 -549t-594 -200l-375 5zM394 700q0 -341 6 -589q112 -11 255 -11h45q285 0 433.5 168.5t148.5 491.5q0 264 -147 401.5 t-431 137.5q-174 0 -302 -9q-8 -226 -8 -523v-67z" />
<glyph unicode="E" horiz-adv-x="1020" d="M147 -16q4 20 6.5 70.5t6.5 181.5q4 206 4 464q0 259 -4 463q-4 131 -6.5 181.5t-6.5 70.5q36 -7 120 -11.5t170 -4.5l155 1q93 0 166.5 4t127.5 13q-6 -31 -6 -70t6 -69q-35 8 -123 13.5t-171 5.5h-72h-37q-73 0 -139 -3l-6 -514l181 1q90 0 184.5 5t130.5 12 q-6 -30 -6 -69q0 -38 6 -68q-36 7 -130.5 12t-184.5 5l-180 1v-81q0 -280 6 -494l137 -2h68q93 0 194 6.5t142 14.5q-6 -31 -6 -71q0 -39 6 -70q-43 7 -131.5 12t-162.5 5l-155 1q-79 0 -163 -4.5t-127 -11.5z" />
<glyph unicode="F" horiz-adv-x="1020" d="M152 -5q4 20 7 71q2 50 6 181q4 203 4 458t-4 458q-4 131 -6.5 181.5t-6.5 70.5q36 -7 135 -11.5t206 -4.5l124 1q93 0 166 4t128 13q-6 -31 -6 -70t6 -69q-34 8 -122 13.5t-172 5.5h-82h-39q-78 0 -147 -3q-5 -215 -6 -504l207 2q93 0 187.5 5t127.5 12q-6 -30 -6 -69 q0 -38 6 -68q-25 5 -119.5 10t-195.5 7l-207 3q0 -248 4 -445q4 -132 6.5 -182.5t6.5 -69.5q-46 5 -104 5t-104 -5z" />
<glyph unicode="G" horiz-adv-x="1586" d="M88 675q0 335 212 543.5t553 208.5q159 0 293 -31t255 -95q-16 -48 -26 -83.5t-21 -86.5l-33 -1q-84 95 -204.5 151.5t-240.5 56.5q-262 0 -420 -179t-158 -478q0 -282 158 -451t420 -169q169 0 339 68v142q0 137 -4 212.5t-17 165.5q47 -5 107 -5t107 5 q-8 -35 -11 -85.5t-5 -166.5v-37q0 -141 2.5 -201t10.5 -99q-249 -88 -574 -88q-331 0 -537 194.5t-206 508.5z" />
<glyph unicode="H" horiz-adv-x="1586" d="M187 -5q4 20 7 71q2 50 6 181q4 203 4 452v83q0 203 -4 370q-4 131 -6.5 181.5t-6.5 70.5q46 -5 104 -5t104 5q-4 -19 -6.5 -69.5t-6.5 -182.5q-4 -155 -4 -336q182 -16 414 -16q233 0 416 16l-4 336q-4 132 -6.5 182.5t-6.5 69.5q46 -5 104 -5t104 5q-4 -20 -6.5 -70.5 t-6.5 -181.5q-4 -202 -4 -452v-83q0 -203 4 -370q4 -131 6.5 -181.5t6.5 -70.5q-46 5 -104 5t-104 -5q4 19 6.5 69.5t6.5 182.5q4 162 4 355v78q-171 16 -388 16h-26q-233 0 -415 -16q-1 -80 -1 -155q0 -150 4 -278q4 -132 6.5 -182.5t6.5 -69.5q-46 5 -104 5t-104 -5z" />
<glyph unicode="I" horiz-adv-x="566" d="M181 -5q4 20 7 71q2 50 6 181q4 203 4 452q0 253 -4 453q-4 131 -6.5 181.5t-6.5 70.5q46 -5 104 -5t104 5q-4 -20 -6.5 -70.5t-6.5 -181.5q-4 -202 -4 -452q0 -252 4 -453q4 -131 6.5 -181.5t6.5 -70.5q-46 5 -104 5t-104 -5z" />
<glyph unicode="J" horiz-adv-x="566" d="M-55 -224q131 6 191 90q62 87 62 282v12l-3 390l-2 224q0 322 -3 448t-12 182q47 -5 105 -5t103 5q-12 -64 -16 -190t-4 -440l3 -223l9 -369v-8q0 -230 -109 -350q-107 -118 -311 -122z" />
<glyph unicode="K" horiz-adv-x="1246" d="M186 -5q4 19 6.5 69.5t6.5 182.5q4 203 4 452q0 253 -4 453q-4 132 -6.5 182.5t-6.5 69.5q46 -5 104 -5t104 5q-4 -20 -6.5 -70.5t-6.5 -181.5q-3 -146 -3 -314v-85q136 117 317 301q197 200 316 345q47 -1 106 -1t105 6q-20 -13 -76 -63l-204 -189l-166 -159l-214 -213 l222 -267l227 -266l166 -193q44 -50 55 -59q-57 5 -129 5q-73 0 -130 -5q-29 52 -67.5 102t-123.5 150l-106 126l-298 338l-1 -11q0 -252 4 -453q4 -131 6.5 -181.5t6.5 -70.5q-46 5 -104 5t-104 -5z" />
<glyph unicode="L" horiz-adv-x="1020" d="M200 -16q4 20 6.5 70.5t6.5 181.5q4 203 4 458t-4 458q-4 131 -6.5 181.5t-6.5 70.5q46 -5 104 -5t104 5q-4 -19 -6.5 -69.5t-6.5 -182.5q-4 -203 -4 -458q1 -341 6 -590q51 -2 107 -2h37h74q94 0 195 6.5t141 14.5q-6 -31 -6 -71q0 -39 6 -70q-44 7 -132.5 12t-161.5 5 l-165 1q-81 0 -165.5 -4.5t-126.5 -11.5z" />
<glyph unicode="M" horiz-adv-x="1813" d="M80 -5q8 26 17.5 76.5t29.5 175.5l66 452q58 419 88 700h18h18l378 -707l222 -398l595 1105h18h18q22 -281 71 -701q29 -249 56 -451q18 -128 26.5 -178.5t15.5 -73.5q-45 7 -102 7t-101 -2q-22 281 -71 701l-35 293l-159 -288q-227 -421 -360 -712h-18h-18 q-139 286 -361 707l-154 288l-36 -289l-35 -302q-23 -182 -29 -262q-4 -55 -5 -101q0 -21 1 -40q-34 5 -77 5t-77 -5z" />
<glyph unicode="N" horiz-adv-x="1586" d="M202 -5q4 20 6.5 70.5t6.5 181.5q4 203 4 452t-4 448q-4 131 -6.5 181.5t-6.5 70.5h30h30l668 -724l337 -350l1 360q0 259 -4 467q-4 132 -6.5 182.5t-6.5 69.5q31 -5 71 -5t71 5q-4 -19 -6.5 -69.5t-6.5 -182.5q-4 -207 -4 -466q0 -428 10 -714h-28h-28l-668 724 l-339 353v-349q1 -252 7 -453q4 -128 7 -178.5t7 -73.5q-31 5 -71 5t-71 -5z" />
<glyph unicode="O" horiz-adv-x="1699" d="M93 675q0 335 213.5 543.5t556.5 208.5q335 0 542 -195t207 -509q0 -335 -213.5 -543t-557.5 -208q-333 0 -540.5 194.5t-207.5 508.5zM303 682q0 -282 150 -451.5t399 -169.5q251 0 400.5 178.5t149.5 476.5q0 283 -149.5 452.5t-400.5 169.5q-249 0 -399 -179 t-150 -477z" />
<glyph unicode="P" d="M176 -5q4 20 7 71q2 50 6 181q4 203 4 452v81q0 200 -4 368q-4 131 -6.5 181.5t-6.5 70.5q79 -3 138.5 -3t100.5 2q54 3 99 4t83 1q247 0 366 -87t119 -268q0 -195 -140.5 -302.5t-396.5 -107.5h-16q-89 0 -162 10v-73q0 -179 4 -329q4 -132 6.5 -182.5t6.5 -69.5 q-46 5 -104 5t-104 -5zM365 742q63 -6 136 -6q173 0 276.5 82.5t103.5 220.5q0 131 -86 197.5t-254 66.5q-97 0 -176 -8v-553z" />
<glyph unicode="Q" horiz-adv-x="1699" d="M90 675q0 335 213.5 543.5t556.5 208.5q335 0 542 -195t207 -509q0 -335 -214 -543q-125 -121 -296 -173l256 -186q77 -56 144 -99.5t88 -50.5q-58 -21 -98 -41t-93 -54q-14 20 -68.5 71.5t-120.5 105.5l-266 222l-103 -3q-333 0 -540.5 194.5t-207.5 508.5zM300 682 q0 -282 150 -451.5t399 -169.5q251 0 400.5 178.5t149.5 476.5q0 283 -149.5 452.5t-400.5 169.5q-249 0 -399 -179t-150 -477z" />
<glyph unicode="R" horiz-adv-x="1246" d="M179 -5q4 19 7 70q2 50 6 182q4 203 4 452q0 253 -4 453q-4 132 -6.5 182.5t-6.5 69.5q95 -4 159 -6q28 -1 50 0q30 0 50 1q57 3 103 4t82 1q226 0 338.5 -83t112.5 -249q0 -172 -166 -279q-107 -68 -255 -93l247 -316l111 -137l159 -191q43 -50 55 -61q-56 5 -128 5 t-128 -5q-26 50 -62 100.5t-117 151.5l-114 147l-237 293h-69q0 -244 4 -440q4 -131 6.5 -181.5t6.5 -70.5q-46 5 -104 5t-104 -5zM368 775q36 3 75 3h19q187 0 299 77.5t112 207.5q0 120 -86 184t-247 64q-94 -1 -172 -7v-529z" />
<glyph unicode="S" horiz-adv-x="1020" d="M93 98q12 41 18 70.5t12 70.5l32 9q46 -83 132.5 -135t180.5 -52q129 0 211 81t82 208q0 104 -69 175t-220 123q-192 66 -274 157q-81 90 -81 240q0 160 119 271t291 111q93 0 175 -23t151 -68q-15 -44 -24 -76t-19 -78h-29q-41 74 -108 115t-146 41q-113 0 -184.5 -68 t-71.5 -175q0 -95 69 -162t219 -118q190 -65 271 -158q80 -92 80 -245q0 -185 -133 -312.5t-325 -127.5q-121 0 -211.5 32t-147.5 94z" />
<glyph unicode="T" d="M41 1281q6 29 6 67t-6 67q112 -7 253 -12t217 -5h53h53q82 0 223 5t247 12q-6 -29 -6 -67t6 -67q-37 7 -137.5 12t-198.5 5h-77q-7 -250 -7 -598q0 -252 4 -453q4 -131 6.5 -181.5t6.5 -70.5q-46 5 -104 5t-104 -5q4 20 7 71q2 50 6 181q4 203 4 452v69q0 305 -8 531 l-108 -1q-100 0 -200.5 -5t-135.5 -12z" />
<glyph unicode="U" horiz-adv-x="1586" d="M211 1404q46 -5 104 -5t104 5q-6 -28 -9 -78.5t-7 -173.5q-5 -207 -5 -466v-83q1 -267 107 -395.5t326 -128.5q230 0 336 136q105 135 105 425v5v40l-2 467q-2 128 -4 178.5t-6 73.5q33 -5 74 -5t74 5q-7 -35 -10.5 -85.5t-7.5 -166.5q-6 -207 -6 -466v-76 q0 -313 -149 -475.5t-437 -162.5q-292 0 -432.5 139t-141.5 429v145l-2 467q-2 124 -4 174.5t-7 77.5z" />
<glyph unicode="V" horiz-adv-x="1360" d="M21 1404q52 -5 118 -5t118 5q12 -55 29 -105t55 -147l180 -459l192 -472l191 471l175 460q36 95 51.5 145.5t26.5 106.5q37 -5 83 -5t82 5q-8 -14 -30 -64l-79 -188l-187 -455l-284 -703q-41 7 -71 7t-71 -7q-105 285 -277 706l-189 452l-84 190q-22 50 -29 62z" />
<glyph unicode="W" horiz-adv-x="2039" d="M35 1404q48 -5 110 -5t110 5q5 -40 17.5 -90t44.5 -162q58 -204 137 -458l149 -469l160 471q140 424 223 709q37 -6 63.5 -6t63.5 6q85 -285 227 -709l160 -470q69 206 147 468l136 458q28 91 39.5 141t19.5 111q36 -5 82 -5q45 0 81 5l-95 -252l-158 -452 q-143 -421 -229 -706q-41 7 -70.5 7t-71.5 -7q-82 285 -218 708l-143 436l-155 -436q-148 -423 -237 -708q-41 7 -71 7t-71 -7q-80 284 -214 705l-147 453l-65 190q-18 50 -25 62z" />
<glyph unicode="X" horiz-adv-x="1246" d="M66 -5q8 8 43 59l132 193l297 446l8 12l-2 3l-275 444q-82 130 -116 180t-54 72q52 -5 119 -5q66 0 118 5q20 -49 48 -99t90 -153l175 -291l186 291q66 103 95 153.5t49 98.5q37 -5 84 -5q46 0 83 5q-7 -7 -44 -57l-142 -195l-259 -380l46 -75l273 -450l118 -193 q32 -50 40 -59q-51 5 -117 5q-65 0 -116 -5q-21 56 -47 106.5t-82 145.5l-217 370l-232 -370q-58 -95 -85 -145.5t-49 -106.5q-37 5 -84 5q-46 0 -83 -5z" />
<glyph unicode="Y" horiz-adv-x="1246" d="M32 1404q55 -5 126 -5t126 5q19 -56 43.5 -106.5t78.5 -145.5l76 -138q100 -178 179 -306q76 122 167 288l86 156q48 84 71.5 134.5t46.5 117.5q40 -5 90 -5t89 5q-10 -11 -43 -62l-122 -190l-118 -189l-207 -348v-116q0 -236 3 -336.5t13 -167.5q-46 5 -104 5t-104 -5 q10 67 13 167.5t3 336.5v74l-221 375l-127 204l-122 190q-33 51 -43 62z" />
<glyph unicode="Z" horiz-adv-x="1246" d="M21 27q193 260 465 661l397 605h-439q-106 0 -207 -3.5t-129 -7.5q6 29 6 67t-6 67q62 -8 162.5 -13.5t173.5 -5.5l191 -1q316 0 526 10l4 -19l5 -20q-194 -260 -465 -661l-398 -607l239 -2h93q171 0 332 6.5t205 14.5q-6 -30 -6 -68t6 -67q-27 5 -115.5 9t-178.5 4 l-336 2q-310 0 -516 -10l-4 19z" />
<glyph unicode="[" horiz-adv-x="566" d="M149 -323q17 347 17 867q0 521 -17 869q81 -13 203 -13q121 0 202 13v-119q-80 19 -202 29l-24 2v-1560l25 2q121 10 201 29v-119q-81 13 -203 13q-121 0 -202 -13z" />
<glyph unicode="\" horiz-adv-x="566" d="M-69 1525q48 -5 82 -5t81 5q0 -22 14 -79.5t34 -118.5l194 -582l203 -579q23 -64 48.5 -120.5t38.5 -73.5q-47 6 -81 6t-82 -6q0 22 -14 79.5t-34 118.5l-194 582l-203 579q-23 64 -48.5 120.5t-38.5 73.5z" />
<glyph unicode="]" horiz-adv-x="566" d="M15 -204q80 -19 202 -29l25 -2v1560l-25 -2q-122 -10 -202 -29v119q81 -13 203 -13t203 13q-17 -348 -17 -869q0 -520 17 -867q-81 13 -203 13t-203 -13v119z" />
<glyph unicode="^" horiz-adv-x="1020" d="M99 993v94q107 62 214 196q108 135 145 253h53h53q37 -118 144 -252q109 -135 216 -197v-94q-174 56 -368 219l-45 39l-45 -38q-194 -163 -367 -220z" />
<glyph unicode="_" horiz-adv-x="1020" d="M0 -407h1020v-105h-1020v105z" />
<glyph unicode="`" d="M293 1374l4 34q65 -13 110.5 -13t106.5 13q42 -95 78 -163t93 -161h-71q-97 96 -170 162q-63 57 -151 128z" />
<glyph unicode="a" horiz-adv-x="982" d="M74 238q0 108 71.5 178t209.5 96l253 49q45 9 60.5 27.5t15.5 63.5v14q0 125 -60.5 190t-177.5 65q-95 0 -160 -39.5t-101 -119.5h-23l-1 116q64 53 150 84.5t165 31.5q175 0 269 -85t94 -243v-519q0 -49 16 -74t46 -25q22 0 36 4l11 -45q-55 -32 -142 -32h-5 q-59 0 -91 52q-18 32 -28 81q-32 -33 -75 -60q-115 -73 -248 -73q-127 0 -206 73t-79 190zM260 258q0 -83 47 -128t134 -45q97 0 167 45q45 30 76 74v295l-192 -36q-116 -23 -174 -74t-58 -131z" />
<glyph unicode="b" d="M131 -21q4 13 8 52t5 88q6 270 6 633q0 340 -5 597q-2 87 -4.5 122t-7.5 54q42 -7 96 -7q53 0 95 7q-4 -19 -6.5 -54t-5.5 -122q-4 -184 -4 -408v-154q15 27 34 52q118 155 308 155q184 0 298 -130.5t114 -341.5q0 -244 -124.5 -395.5t-325.5 -151.5q-172 0 -279 127 l-9 11l-176 -141zM313 434h1q0 -179 71 -276q70 -97 201 -97q142 0 216 111t74 325q0 197 -69.5 304t-198.5 107q-142 0 -218.5 -123t-76.5 -351z" />
<glyph unicode="c" horiz-adv-x="982" d="M80 476q0 231 142 374.5t370 143.5q84 0 174 -21.5t172 -61.5q-15 -42 -24 -74t-18 -77h-29q-39 76 -109.5 118.5t-158.5 42.5q-151 0 -242 -123.5t-91 -329.5q0 -181 104 -300.5t261 -119.5q77 0 145.5 33.5t126.5 99.5l18 -23l-18 -90q-63 -46 -143.5 -69.5 t-175.5 -23.5q-225 0 -364.5 139t-139.5 362z" />
<glyph unicode="d" d="M63 477q0 231 121.5 374t316.5 143q182 0 295 -139l24 -33v97q0 238 -4 430q-3 87 -5.5 122t-6.5 54q42 -7 96 -7q53 0 95 7q-5 -19 -7.5 -54t-4.5 -122q-5 -252 -5 -586l5 -592q1 -74 3.5 -109t8.5 -67q-38 5 -87 5q-48 0 -86 -5q4 17 7 52t8 124l2 41q-25 -52 -61 -97 q-115 -140 -309 -140q-181 0 -293.5 139t-112.5 363zM249 471q0 -197 71 -303.5t202 -106.5q137 0 217.5 116.5t80.5 315.5t-74.5 307t-211.5 108q-140 0 -212.5 -111.5t-72.5 -325.5z" />
<glyph unicode="e" horiz-adv-x="1020" d="M75 477q0 231 126 374t329 143h2q205 0 313 -116q95 -102 107 -285q3 -35 3 -72l-2 -55v-1q-45 7 -146 12t-202 5h-348v-38q0 -190 86.5 -293t245.5 -103q95 0 177 38t151 114l18 -23q-7 -26 -11 -44.5t-7 -45.5q-79 -56 -173.5 -84t-202.5 -28q-208 0 -337 139t-129 363 zM262 569h505v40q0 140 -66 226t-174 86q-134 0 -202 -121q-48 -84 -63 -231z" />
<glyph unicode="f" horiz-adv-x="566" d="M53 864q4 36 4 62t-4 62q17 -8 42 -13.5t44 -5.5h51q-1 214 117 388t268 174h5l41 -8q-7 -52 -7 -89q0 -38 7 -91q-60 34 -122 34h-3q-119 0 -150 -87q-16 -41 -16 -117q0 -82 18 -204h47q50 0 99.5 5.5t71.5 13.5q-3 -36 -3 -62t3 -62q-12 6 -33.5 10.5t-40.5 5.5 l-145 4v-118l5 -595q1 -74 3.5 -109t8.5 -67q-42 5 -96 5q-53 0 -95 -5q4 21 6.5 56t4.5 120q6 223 6 511v83v117l-63 -3q-20 -1 -41.5 -5.5t-32.5 -9.5z" />
<glyph unicode="g" horiz-adv-x="1020" d="M79 -159q0 114 124 193q57 36 126 56q-51 8 -84 23q-80 35 -80 116q0 56 39.5 101.5t109.5 69.5q-58 20 -102 56q-106 84 -106 220q0 142 111.5 230t291.5 88q29 1 55 -2q34 -4 72 -6t59 -1l120 4q53 2 99 6.5t61 9.5q-4 -31 -4 -54q0 -24 4 -56l-50 4l-141 12l3 -2 q106 -85 106 -221q0 -141 -112 -228.5t-292 -87.5l-58 2q-26 1 -53 -3.5t-41 -12t-23 -16.5q-19 -20 -19 -57q0 -38 32.5 -56t103.5 -18h210q169 0 260.5 -64t91.5 -182q0 -162 -149.5 -273.5t-365.5 -111.5q-168 0 -283.5 75.5t-115.5 185.5zM220 -134q0 -101 76.5 -156 t217.5 -55q139 0 235.5 69t96.5 169q0 90 -84.5 137t-247.5 47h-9q-131 0 -208 -57t-77 -154zM292 672q0 -108 54 -166.5t153 -58.5q95 0 151.5 67t56.5 178q0 102 -57 165q-57 62 -151 62t-150.5 -67.5t-56.5 -179.5z" />
<glyph unicode="h" d="M149 -5q4 21 7 56q2 35 4 120q6 254 6 591q0 333 -5 587q-3 86 -5.5 121.5t-6.5 54.5q41 -7 93 -7t93 7q-13 -67 -17 -155t-4 -285v-278q27 42 58 74q108 113 270 113q152 0 241 -93.5t89 -253.5v-476q0 -47 3 -82t11 -94q-42 5 -95 5t-95 -5q5 26 8 61t5 115 q4 141 4 314v96q0 142 -61 222.5t-169 80.5q-130 0 -195 -82t-65 -246l6 -385q1 -74 3.5 -109t7.5 -67q-42 5 -96 5q-53 0 -95 -5z" />
<glyph unicode="i" horiz-adv-x="566" d="M185 1327q0 44 30 74t74 30t74 -30t30 -74t-30 -74t-74 -30t-74 30t-30 74zM191 -5q5 26 8 61t5 115q4 139 4 316q0 174 -4 311q-2 80 -5 115t-8 61q42 -7 96 -7q53 0 95 7q-7 -28 -10 -63.5t-4 -112.5l-3 -311q0 -177 4 -316q2 -80 5 -115t8 -61q-42 5 -96 5 q-53 0 -95 -5z" />
<glyph unicode="j" horiz-adv-x="566" d="M-6 -359q99 17 147 86q63 90 63 312l1 237q0 297 -5 522q-2 81 -4.5 116t-7.5 60q43 -7 98 -7q54 0 97 7q-10 -55 -13.5 -146t-3.5 -311v-543q0 -190 -107 -293q-90 -87 -247 -100zM177 1327q0 44 30 74t74 30t74 -30t30 -74t-30 -74t-74 -30t-74 30t-30 74z" />
<glyph unicode="k" horiz-adv-x="1020" d="M140 -5q4 21 6.5 56t4.5 120q6 254 6 591q0 333 -5 587q-2 87 -4.5 122t-7.5 54q42 -7 96 -7q53 0 95 7q-4 -19 -6.5 -54t-5.5 -122q-5 -252 -5 -586v-211h16q25 0 36.5 4t27.5 18q74 67 164 159l63 65q44 45 72.5 80t69.5 96q43 -5 97 -5t96 5q-8 -4 -203 -176 l-119 -107l-139 -129l159 -184l183 -207q64 -70 100 -105.5t82 -70.5q-59 5 -135 5q-77 0 -137 -5q-25 46 -49.5 81t-73.5 95l-76 93q-115 140 -204 235h-29q0 -177 4 -328q2 -81 4.5 -116t7.5 -60q-42 5 -96 5q-53 0 -95 -5z" />
<glyph unicode="l" horiz-adv-x="566" d="M194 -5q4 20 7 56q2 35 4 120q6 254 6 591l-5 587q-1 81 -3.5 116t-8.5 60q42 -7 96 -7q53 0 95 7q-4 -19 -6.5 -54t-5.5 -122q-5 -252 -5 -586l5 -592q1 -74 3.5 -109t8.5 -67q-42 5 -96 5q-53 0 -95 -5z" />
<glyph unicode="m" horiz-adv-x="1699" d="M143 -5q5 26 8 61t5 115q4 139 4 316q0 174 -4 311q-2 80 -5 115t-8 61q41 -7 93 -7t93 7q-5 -10 -7.5 -31t-6.5 -74l-4 -62q25 42 55 74q103 113 256 113q141 0 224 -90q44 -47 64 -113q30 50 65 90q103 113 256 113q141 0 223.5 -89.5t82.5 -241.5l-1 -176 q0 -177 4 -316q2 -80 5 -115t8 -61q-42 5 -96 5q-53 0 -95 -5q5 25 8 60.5t5 115.5q4 139 4 316l-1 154q0 114 -54 178.5t-149 64.5q-122 0 -185 -83.5t-63 -244.5v-69q0 -177 4 -316q2 -80 5 -115t8 -61q-42 5 -96 5q-53 0 -95 -5q5 26 8 61t5 115q4 139 4 316l-1 154 q0 114 -54 178.5t-149 64.5q-122 0 -185.5 -83.5t-63.5 -244.5v-69q0 -177 4 -316q2 -80 5 -115.5t8 -60.5q-42 5 -96 5q-53 0 -95 -5z" />
<glyph unicode="n" d="M148 -5q5 25 8 61q3 35 5 115q4 139 4 316v57q0 140 -4 254q-4 88 -6.5 123.5t-6.5 52.5q40 -7 92 -7t92 7q-5 -9 -7.5 -30t-6.5 -75l-4 -59q27 38 57 71q109 113 271 113q152 0 241 -93.5t89 -253.5v-476q0 -47 3 -82t11 -94q-42 5 -95 5t-95 -5q5 25 8 60.5t5 115.5 q4 141 4 314v114q0 134 -63 209.5t-175 75.5q-126 0 -189.5 -82t-63.5 -246v-69q0 -177 4 -316q2 -80 5 -115t8 -61q-42 5 -96 5q-53 0 -95 -5z" />
<glyph unicode="o" d="M81 476q0 231 140.5 374.5t365.5 143.5q211 0 342.5 -139t131.5 -363q0 -231 -140 -374t-366 -143q-211 0 -342.5 139t-131.5 362zM267 470q0 -203 79 -312.5t225 -109.5q138 0 221 122.5t83 327.5q0 203 -79 313t-225 110q-138 0 -221 -123t-83 -328z" />
<glyph unicode="p" d="M136 -425q5 25 7.5 60t4.5 116q5 226 5 525q0 297 -5 522q-2 81 -4.5 116t-7.5 60q40 -7 90 -7t89 7q-5 -20 -9 -55.5t-9 -120.5l-2 -25q23 40 50 75q117 146 306 146q182 0 295 -130.5t113 -341.5q0 -244 -125.5 -395.5t-328.5 -151.5q-174 0 -282 137l-13 17l5 -378 q2 -81 4.5 -116t7.5 -60q-42 5 -96 5q-53 0 -95 -5zM311 468h1q0 -195 70.5 -301t201.5 -106q142 0 215.5 111t73.5 325q0 197 -71 304t-202 107q-142 0 -215.5 -112t-73.5 -328z" />
<glyph unicode="q" d="M74 477q0 231 120.5 374t313.5 143q180 0 292 -146q21 -26 36 -57v7q-4 77 -7 112.5t-8 63.5q39 -5 89 -5q49 0 88 5q-5 -25 -7.5 -60t-4.5 -116q-5 -225 -5 -523q0 -297 5 -524q2 -81 4.5 -116t7.5 -60q-42 5 -96 5q-53 0 -95 -5q5 25 7.5 60t4.5 116q4 144 4 315v69 l-18 -23q-115 -137 -300 -137q-192 0 -311.5 139t-119.5 363zM260 488q0 -205 73 -316t208 -111q138 0 210 104t72 303q0 207 -74.5 323.5t-207.5 116.5q-138 0 -209.5 -107t-71.5 -313z" />
<glyph unicode="r" horiz-adv-x="680" d="M166 -5q5 26 8 62q3 35 5 114q4 139 4 316q0 174 -4 311q-2 79 -5 114.5t-8 61.5q44 -7 100 -7t100 7q-5 -22 -9 -57.5t-9 -118.5v-6q27 46 57 81q100 121 210 121q22 0 39.5 -2.5t35.5 -7.5q-19 -50 -27 -87t-9 -91q-26 16 -51 22.5t-57 6.5q-101 0 -153.5 -78.5 t-52.5 -228.5v-41v-58q0 -142 4 -258q4 -88 6.5 -123t6.5 -53q-42 5 -96 5q-53 0 -95 -5z" />
<glyph unicode="s" horiz-adv-x="793" d="M91 48q19 41 31 71.5t26 73.5q38 -71 99 -109t138 -38q89 0 146 51.5t57 132.5q0 70 -49 113t-161 72q-150 38 -211 103q-60 65 -60 188q0 121 91.5 204.5t224.5 83.5q73 0 137 -18t111 -51q-22 -38 -35 -67q-14 -29 -30 -71q-28 65 -79 100.5t-117 35.5 q-75 0 -122.5 -47.5t-47.5 -121.5q0 -71 49 -115q48 -43 159 -71q148 -38 209 -97q60 -59 60 -166q0 -139 -103.5 -234.5t-253.5 -95.5q-91 0 -158 18t-111 55z" />
<glyph unicode="t" horiz-adv-x="566" d="M39 862q4 37 4 64t-4 64q10 -6 22.5 -10.5t21.5 -4.5l82 -5v54q0 45 -4.5 88.5t-11.5 62.5q58 19 98 37t93 49q-7 -20 -11.5 -78t-4.5 -122v-92q98 1 172 6q10 0 23 4.5t22 10.5q-4 -37 -4 -64t4 -64q-9 6 -22 10.5t-22 4.5q-75 5 -173 6v-657q0 -87 36 -132.5t105 -45.5 q41 0 81 24q-2 -17 -2 -29q0 -13 2 -30q-68 -38 -150 -38q-118 0 -174.5 61.5t-56.5 189.5v654h-17q-34 0 -64 -3q-10 0 -23 -4.5t-22 -10.5z" />
<glyph unicode="u" d="M164 974q42 -7 96 -7q53 0 95 7q-7 -28 -10 -63t-4 -113l-3 -311v-120q0 -133 62.5 -208t173.5 -75q123 0 186.5 83.5t63.5 244.5v75q0 174 -4 311q-2 80 -5 115t-8 61q42 -7 95 -7t95 7q-8 -45 -11 -115.5t-3 -236.5v-451q0 -46 3 -81.5t11 -94.5q-38 5 -87 5 q-48 0 -86 -5q5 28 8 63.5t7 112.5v1q-28 -46 -65 -85q-109 -113 -272 -113q-148 0 -235 94t-87 254l1 165q0 174 -4 311q-2 80 -5 115t-8 61z" />
<glyph unicode="v" horiz-adv-x="1020" d="M22 974q47 -5 107 -5q59 0 106 5q11 -48 22 -83t34 -93l129 -319l122 -289l119 286q72 178 123 322q17 47 26 82.5t19 93.5q37 -5 84 -5q46 0 83 5q-13 -19 -31 -54t-59 -122l-138 -311q-125 -293 -196 -493q-36 6 -62 6t-63 -6q-74 198 -199 490l-138 314l-60 126 q-18 35 -28 50z" />
<glyph unicode="w" horiz-adv-x="1586" d="M37 974q46 -5 105 -5q58 0 104 5q7 -46 16.5 -81.5t29.5 -94.5l111 -319l96 -261l93 262q101 295 157 495q38 -5 66 -5t66 5q59 -199 162 -493l96 -266l96 261q63 177 109 321q14 43 21.5 78.5t16.5 97.5q37 -5 83 -5t82 5q-16 -23 -33 -58t-52 -118l-127 -311 q-115 -293 -177 -493q-33 6 -57 6t-58 -6q-62 199 -168 493l-94 252q-45 -112 -94 -250q-107 -294 -165 -495q-34 6 -58 6t-57 -6q-63 198 -171 490l-120 314q-32 80 -47.5 115t-31.5 61z" />
<glyph unicode="x" horiz-adv-x="1020" d="M65 -5q16 14 45 50l99 126l233 301q-9 7 -14 17l-223 309l-99 130q-28 36 -38 46q48 -5 108 -5t108 5q18 -37 40 -72.5t70 -103.5l142 -203l152 203q36 47 58.5 82.5t54.5 93.5q34 -5 78 -5t78 5q-8 -6 -153 -176l-218 -274q18 -20 34 -44l228 -309l95 -125 q28 -36 45 -51q-51 5 -117 5q-65 0 -116 -5q-17 37 -38.5 72t-68.5 104l-158 230l-167 -230q-32 -44 -52.5 -79.5t-49.5 -96.5q-34 5 -78 5t-78 -5z" />
<glyph unicode="y" horiz-adv-x="1020" d="M30 974q51 -5 116 -5q64 0 115 5q5 -58 19.5 -107.5t51.5 -138.5l104 -251l116 -269l27 62l141 352q56 142 77 212.5t26 139.5q39 -5 89 -5t89 5q-12 -17 -31 -52l-61 -124l-234 -514q-131 -297 -221 -529q-27 -68 -39 -103.5t-20 -72.5q-39 5 -89 5t-89 -5 q39 52 62 87.5t52 88.5l133 242q-77 200 -202 486l-141 315q-40 84 -58 119t-33 57z" />
<glyph unicode="z" horiz-adv-x="1020" d="M46 13q148 181 353 465q167 230 280 404q-49 2 -103 2h-36l-208 -2q-43 0 -97 -5t-82 -11q6 26 6 59t-6 59q28 -6 202 -10.5t398 -4.5q44 0 93.5 4.5t78.5 10.5l9 -12l9 -13q-149 -181 -357 -465q-172 -233 -287 -408q70 -3 149 -3h41l122 1q85 0 176.5 5.5t127.5 13.5 q-6 -26 -6 -59t6 -59q-43 5 -143.5 9t-192.5 4h-89q-256 0 -426 -10l-9 12z" />
<glyph unicode="{" horiz-adv-x="906" d="M167 508v48q152 63 202 156.5t12 242.5q-32 123 -31 218q-1 116 47 190q86 134 368 188v-48q-131 -34 -185 -157.5t-23 -318.5q12 -72 11 -130q1 -123 -49 -190q-59 -81 -259 -174q200 -96 259 -176q50 -67 49 -190q1 -58 -11 -130q-31 -195 23 -318.5t185 -157.5v-48 q-282 54 -368 188q-48 74 -47 190q-1 95 31 218q38 149 -12 242.5t-202 156.5z" />
<glyph unicode="|" horiz-adv-x="1020" d="M458 -512v2048h105v-2048h-105z" />
<glyph unicode="}" horiz-adv-x="906" d="M141 -439q131 34 185 157.5t23 318.5q-12 72 -11 130q-1 123 49 190q59 80 259 176q-200 93 -259 174q-50 67 -49 190q-1 58 11 130q31 195 -23 318.5t-185 157.5v48q282 -54 368 -188q48 -74 47 -190q1 -95 -31 -218q-38 -149 12 -242.5t202 -156.5v-48 q-152 -63 -202 -156.5t-12 -242.5q32 -123 31 -218q1 -116 -47 -190q-86 -134 -368 -188v48z" />
<glyph unicode="~" horiz-adv-x="2039" d="M414 548q93 133 166 187t158 54q53 0 127.5 -13.5t204.5 -46.5q161 -41 235 -58t95 -17q74 0 130.5 29t119.5 101l34 -36q-63 -134 -136 -189t-188 -55q-67 0 -141.5 13.5t-190.5 47.5q-137 40 -208 56t-107 16q-76 0 -136 -27.5t-132 -94.5z" />
<glyph unicode="&#xa1;" horiz-adv-x="566" d="M172 851q0 50 34 84t84 34t84 -34t34 -84t-34 -84.5t-84 -34.5t-84 34.5t-34 84.5zM185 -278l1 27l78 883h26h26l77 -882l1 -28q0 -68 -27 -105t-77 -37t-77.5 37t-27.5 105z" />
<glyph unicode="&#xa2;" d="M154 745q0 227 143 368q124 125 318 139q-4 63 -4 121q-1 36 -5 69t-9 46q38 -5 65 -5t64 5q-5 -13 -9 -46.5t-5 -69.5l-3 -119q66 -6 132 -23q88 -24 158 -67q-20 -39 -33 -68t-27 -71q-40 69 -108 106q-56 30 -123 36l-3 -435l2 -390q67 5 133 35q79 35 159 108 q-16 -38 -23 -66.5t-9 -69.5q-62 -47 -139 -71q-57 -17 -119 -23l3 -164q1 -36 5 -69t9 -46q-37 4 -64 4t-65 -4q5 13 9 46.5t5 69.5l3 164q-194 12 -320 135q-140 136 -140 355zM340 737q0 -171 97 -284q75 -88 180 -108l-1 1l2 386l-3 430q-112 -20 -184 -112 q-91 -117 -91 -313z" />
<glyph unicode="&#xa3;" d="M67 -18q5 41 5 70t-5 70q8 -1 30 1t45 6q97 19 153 86q76 90 76 266q0 52 -2 102l-3 90l-143 -6q-10 0 -23.5 -4.5t-23.5 -9.5q6 39 6 67t-6 66q10 -5 23 -9.5t23 -4.5l141 -5l-1 185q0 187 107.5 303t280.5 116q77 0 146 -22.5t124 -65.5q-32 -37 -48.5 -67.5 t-31.5 -78.5q-27 76 -81.5 119t-124.5 43q-100 0 -157.5 -77.5t-57.5 -212.5q0 -14 2 -59l5 -185q148 0 257 7q11 1 24.5 5t22.5 9q-4 -38 -4 -66t4 -67q-9 5 -22.5 9t-23.5 5q-111 6 -260 7v-73q0 -140 -63 -273q-55 -117 -140 -189h176q169 0 305.5 5t165.5 13 q-5 -50 -5 -86q0 -37 5 -87q-18 5 -90.5 8t-159.5 3l-201 2l-175 -1q-95 0 -175 -4t-100 -10z" />
<glyph unicode="&#xa4;" d="M83 317l137 137q-90 117 -91 274q0 159 92 275l-138 138l79 79l138 -138q117 93 274 92q157 0 274 -92l138 138l79 -79l-138 -138q93 -116 93 -275q0 -156 -92 -274l137 -137l-79 -79l-137 137q-116 -91 -275 -92q-158 0 -275 92l-137 -137zM249 728q0 -137 94 -231 t231 -94t231.5 94t94.5 231t-94.5 231.5t-231.5 94.5t-231 -94.5t-94 -231.5z" />
<glyph unicode="&#xa5;" d="M-19 1382q55 -5 126 -5t126 5q17 -49 42 -99.5t83 -152.5l73 -130q99 -174 179 -301l164 281l85 150q57 100 82 150.5t42 101.5q39 -5 89 -5q49 0 88 5q-7 -7 -41 -58l-128 -194l-116 -182l-211 -345v-104v-28q101 1 179 6q9 0 21.5 4.5t21.5 9.5q-5 -37 -5 -63 q0 -27 5 -65q-9 5 -22 9.5t-22 4.5q-78 6 -178 6l2 -119l64 -1q63 -1 111 5q10 1 23 5.5t22 10.5q-5 -37 -5 -64t5 -64q-10 6 -23.5 11t-22.5 6q-47 4 -108 4l-63 -1q3 -98 16 -181q-48 5 -109 5t-109 -5q13 83 17 181l-62 1q-62 1 -111 -5q-11 -1 -24 -6t-21 -10q5 37 5 64 t-5 64q10 -6 23.5 -11t22.5 -6q47 -4 108 -4l66 1l2 119q-99 -1 -179 -6q-9 0 -21.5 -4.5t-21.5 -9.5q5 38 5 65q0 26 -5 63q10 -5 22.5 -9.5t21.5 -4.5q79 -5 178 -6v28v71l-219 365l-122 195l-121 189q-34 50 -45 63z" />
<glyph unicode="&#xa6;" horiz-adv-x="1020" d="M458 458h105v-919h-105v919zM458 564v919h105v-919h-105z" />
<glyph unicode="&#xa7;" d="M180 627q0 135 107 219l29 20q-59 77 -59 182q0 157 93 254t243 97q89 0 170.5 -27t148.5 -79q-35 -49 -55 -87t-41 -94l-11 -1q-23 95 -82.5 147t-144.5 52q-95 0 -153.5 -55t-58.5 -144q0 -68 62.5 -120t209.5 -108q171 -65 243.5 -142t72.5 -194q0 -153 -99 -250 q73 -80 72 -196q0 -170 -117 -275.5t-305 -105.5q-87 0 -162.5 20t-139.5 61q17 65 25 112.5t11 114.5l11 1q33 -103 111.5 -161.5t182.5 -58.5q122 0 198 63t76 164q0 72 -68 127t-228 112q-185 67 -263.5 147.5t-78.5 204.5zM289 695q0 -75 67.5 -131t227.5 -113 q143 -51 223 -111q36 58 38 135q0 71 -62.5 124.5t-210.5 109.5q-138 53 -212 113q-71 -50 -71 -127z" />
<glyph unicode="&#xa8;" d="M268 1231q0 41 28 69.5t69 28.5t69 -28.5t28 -69.5t-28 -69t-69 -28t-69 28t-28 69zM679 1231q0 41 28 69.5t69 28.5t69 -28.5t28 -69.5t-28 -69t-69 -28t-69 28t-28 69z" />
<glyph unicode="&#xa9;" horiz-adv-x="1020" d="M86 1051q0 201 138.5 339.5t338.5 138.5q201 0 339.5 -138.5t138.5 -339.5q0 -200 -138.5 -338.5t-339.5 -138.5q-200 0 -338.5 138.5t-138.5 338.5zM151 1051q0 -173 119.5 -292.5t292.5 -119.5t293 119.5t120 292.5t-120 293t-293 120t-292.5 -120t-119.5 -293z M334 1060q0 116 75.5 195.5t184.5 79.5q58 0 114.5 -22t79.5 -54l-58 -62q-19 26 -58.5 44.5t-77.5 18.5q-78 0 -131.5 -58t-53.5 -142t54.5 -141.5t133.5 -57.5q37 0 77 19.5t61 47.5l58 -62q-24 -34 -81 -57t-115 -23q-110 0 -186.5 79.5t-76.5 194.5z" />
<glyph unicode="&#xaa;" horiz-adv-x="831" d="M113 864q0 70 46.5 116t135.5 65l163 33q36 7 49 22.5t13 53.5q0 66 -37.5 100.5t-110.5 34.5q-59 0 -105.5 -27t-81.5 -82l-14 3l8 129q46 29 103.5 45.5t109.5 16.5q122 0 188 -57.5t66 -164.5v-292q0 -59 11 -90t33 -31q20 0 32 6l1 -46q-41 -22 -106 -23 q-38 0 -63 39q-13 22 -21 47l-33 -28q-78 -58 -174 -58q-99 0 -156 50t-57 138zM260 853q0 -46 26.5 -70.5t76.5 -24.5q63 0 113 41q25 21 44 46v161l-115 -23q-73 -15 -109 -47.5t-36 -82.5z" />
<glyph unicode="&#xab;" horiz-adv-x="755" d="M81 485q53 66 123 173t109 183q23 -32 44 -49t58 -31q-74 -98 -174 -251l-17 -27l15 -24q100 -154 176 -250q-37 -10 -59 -25q-23 -15 -48 -46q-37 75 -105 179t-122 168zM378 485q53 66 123 173t109 183q23 -32 44 -49t58 -31q-74 -98 -174 -251l-17 -27l15 -24 q100 -154 176 -250q-37 -10 -59 -25q-23 -15 -48 -46q-37 75 -105 179t-122 168z" />
<glyph unicode="&#xac;" horiz-adv-x="1813" d="M301 688v109h1216v-614h-109v505h-1107z" />
<glyph unicode="&#xad;" horiz-adv-x="566" d="M30 422v143h512v-143h-512z" />
<glyph unicode="&#xae;" horiz-adv-x="1020" d="M86 1046q0 201 138.5 339.5t338.5 138.5q201 0 339.5 -138.5t138.5 -339.5q0 -200 -138.5 -338.5t-339.5 -138.5q-200 0 -338.5 138.5t-138.5 338.5zM151 1046q0 -173 119.5 -292.5t292.5 -119.5t293 119.5t120 292.5t-120 293t-293 120t-292.5 -120t-119.5 -293z M396 807v506h187q62 0 104.5 -42.5t42.5 -104.5t-43 -105q-20 -20 -46 -31l89 -223h-91l-84 212h-84v-212h-75zM471 1094h112q30 0 51 21t21 51t-21 51t-51 21h-112v-72v-72z" />
<glyph unicode="&#xaf;" horiz-adv-x="1020" d="M0 1526v105h1020v-105h-1020z" />
<glyph unicode="&#xb0;" d="M245 1047q0 137 94.5 231.5t231.5 94.5t231.5 -94.5t94.5 -231.5t-94.5 -231.5t-231.5 -94.5t-231.5 94.5t-94.5 231.5zM327 1047q0 -102 71 -172.5t173 -70.5t173 70.5t71 172.5t-71 172.5t-173 70.5t-173 -70.5t-71 -172.5z" />
<glyph unicode="&#xb1;" horiz-adv-x="1813" d="M376 -139h1056v-109h-1056v109zM376 446v108h474v474h108v-474h474v-108h-474v-474h-108v474h-474z" />
<glyph unicode="&#xb2;" horiz-adv-x="755" d="M61 569l257 249q88 85 127 164t39 171q0 74 -31.5 112.5t-92.5 38.5q-51 0 -88 -35.5t-51 -98.5q-25 27 -45 44t-50 37q35 54 102.5 87t141.5 33q120 0 193 -61q73 -60 73 -159q0 -91 -53 -170q-52 -78 -209 -221l-100 -91l90 1h17q94 0 174.5 4.5t103.5 11.5 q-5 -39 -5 -68t5 -69q-11 4 -45.5 8t-73.5 6q-79 4 -174 4q-177 0 -295 -13l-5 7z" />
<glyph unicode="&#xb3;" horiz-adv-x="755" d="M109 591q11 33 16 56.5t9 55.5q32 -43 72.5 -65t87.5 -22q90 0 142 48t52 132q0 72 -47 113q-34 29 -86 38q-19 3 -48.5 -0.5t-52.5 -12.5q4 28 4 48t-4 48q25 -9 54 -12t46 2q32 9 54 31q36 37 36 106q0 70 -29 107.5t-83 37.5q-43 0 -75 -23.5t-47 -66.5q-18 27 -34 45 t-41 40q36 35 92 54.5t120 19.5q116 0 182.5 -51t66.5 -140t-62 -140q-23 -18 -53 -31q48 -17 84 -46q73 -61 73 -159q0 -115 -92.5 -186t-241.5 -71q-53 0 -108.5 12.5t-86.5 31.5z" />
<glyph unicode="&#xb4;" d="M472 1084q58 93 94.5 161t79.5 163q62 -13 108 -13t112 13l3 -34q-90 -69 -156 -128q-73 -65 -167 -162h-74z" />
<glyph unicode="&#xb5;" d="M-125 -337q83 200 135 338t74 215l222 764h200l-192 -639q-29 -99 15 -162.5t142 -63.5q105 0 187.5 105.5t144.5 317.5l128 442h190l-153 -529q-30 -103 -50 -234t-18 -217h-185q2 87 19 191q-24 -42 -49 -76q-102 -140 -227 -140q-110 0 -165 88q-23 39 -30 83 l-178 -483h-210z" />
<glyph unicode="&#xb6;" d="M190 1045q0 216 161.5 348.5t425.5 132.5h260v-80h-138v-1772h-80v1772h-98v-1772h-80v894q-212 41 -329 161q-122 124 -122 316z" />
<glyph unicode="&#xb7;" horiz-adv-x="566" d="M168 699q0 50 34 84.5t84 34.5t84 -34.5t34 -84.5t-34 -84t-84 -34t-84 34t-34 84z" />
<glyph unicode="&#xb8;" d="M328 -355l40 68q42 -32 96 -51.5t103.5 -19.5t80 24t30.5 64q0 34 -26.5 54.5t-71.5 20.5q-27 0 -48 -3.5t-30 -8.5l-27 29l104 178h77l-68 -117q29 4 60 3q69 0 111.5 -39t42.5 -102q0 -80 -63 -130t-165 -50q-61 0 -129 22t-117 58z" />
<glyph unicode="&#xb9;" horiz-adv-x="755" d="M143 1237q71 21 172 62q103 43 168 79q-10 -162 -10 -405l3 -244q1 -69 3.5 -102t8.5 -62q-36 3 -81 3t-81 -3q6 30 9 63q2 33 3 101l3 244q0 153 -4 274q-79 -39 -132 -72z" />
<glyph unicode="&#xba;" horiz-adv-x="831" d="M69 1019q0 158 100 256.5t261 98.5q151 0 245 -95.5t94 -249.5q0 -157 -100 -255t-261 -98q-151 0 -245 95t-94 248zM216 1014q0 -124 51.5 -191.5t146.5 -67.5t151.5 76t56.5 203q0 125 -50 193t-142 68q-97 0 -155.5 -76.5t-58.5 -204.5z" />
<glyph unicode="&#xbb;" horiz-adv-x="755" d="M44 209q74 98 174 251l17 27l-15 24q-100 154 -176 250q37 10 59 25q23 15 48 46q37 -75 105 -179t122 -168q-53 -66 -123 -173t-109 -183q-23 32 -44 49t-58 31zM341 209q74 98 174 251l17 27l-15 24q-100 154 -176 250q37 10 59 25q23 15 48 46q37 -75 105 -179 t122 -168q-53 -66 -123 -173t-109 -183q-23 32 -44 49t-58 31z" />
<glyph unicode="&#xbc;" horiz-adv-x="1813" d="M343 -25q5 5 48 66l418 626l408 636q37 59 40 68q37 -4 63 -4t63 4q-4 -3 -48 -66l-418 -626l-408 -636q-37 -57 -40 -68q-37 4 -63 4t-63 -4zM223 1237q71 21 172 62q103 43 168 79q-10 -162 -10 -405l3 -244q1 -69 3.5 -102t8.5 -62q-36 3 -81 3t-81 -3q6 30 9 63 q2 33 3 101l3 244q0 153 -4 274q-79 -39 -132 -72zM898 209l424 590q41 -6 70 -6t69 6q-4 -12 -7 -55.5t-4 -94.5l-3 -247l1 -108h5q29 0 61 4.5t49 11.5q-4 -38 -4 -65q0 -28 4 -67q-17 7 -49 11.5t-61 4.5h-3v-30q1 -68 3.5 -101t8.5 -63q-34 3 -78 3t-78 -3q9 64 12 116 l2 78h-412l-5 7zM1057 294h264v377l-117 -162q-84 -117 -147 -215z" />
<glyph unicode="&#xbd;" horiz-adv-x="1813" d="M283 -25q5 5 48 66l418 626l408 636q37 59 40 68q37 -4 63 -4t63 4q-4 -3 -48 -66l-418 -626l-408 -636q-37 -57 -40 -68q-37 4 -63 4t-63 -4zM155 1237q71 21 172 62q103 43 168 79q-10 -162 -10 -405l3 -244q1 -69 3.5 -102t8.5 -62q-36 3 -81 3t-81 -3q6 30 9 63 q2 33 3 101l3 244q0 153 -4 274q-79 -39 -132 -72zM972 20l257 249q88 85 127 164t39 171q0 74 -31.5 112.5t-92.5 38.5q-51 0 -88 -35.5t-51 -98.5q-25 27 -45 44t-50 37q35 54 102.5 87t141.5 33q120 0 193 -61q73 -60 73 -159q0 -91 -53 -170q-52 -78 -209 -221l-100 -91 l90 1h17q94 0 174.5 4.5t103.5 11.5q-5 -39 -5 -68t5 -69q-11 4 -45.5 8t-73.5 6q-79 4 -174 4q-177 0 -295 -13l-5 7z" />
<glyph unicode="&#xbe;" horiz-adv-x="1813" d="M456 -25q5 5 48 66l418 626l408 636q37 59 40 68q37 -4 63 -4t63 4q-4 -3 -48 -66l-418 -626l-408 -636q-37 -57 -40 -68q-37 4 -63 4t-63 -4zM238 591q11 33 16 56.5t9 55.5q32 -43 72.5 -65t87.5 -22q90 0 142 48t52 132q0 72 -47 113q-34 29 -86 38q-19 3 -48.5 -0.5 t-52.5 -12.5q4 28 4 48t-4 48q25 -9 54 -12t46 2q32 9 54 31q36 37 36 106q0 70 -29 107.5t-83 37.5q-43 0 -75 -23.5t-47 -66.5q-18 27 -34 45t-41 40q36 35 92 54.5t120 19.5q116 0 182.5 -51t66.5 -140t-62 -140q-23 -18 -53 -31q48 -17 84 -46q73 -61 73 -159 q0 -115 -92.5 -186t-241.5 -71q-53 0 -108.5 12.5t-86.5 31.5zM976 209l424 590q41 -6 70 -6t69 6q-4 -12 -7 -55.5t-4 -94.5l-3 -247l1 -108h5q29 0 61 4.5t49 11.5q-4 -38 -4 -65q0 -28 4 -67q-17 7 -49 11.5t-61 4.5h-3v-30q1 -68 3.5 -101t8.5 -63q-34 3 -78 3t-78 -3 q9 64 12 116l2 78h-412l-5 7zM1135 294h264v377l-117 -162q-84 -117 -147 -215z" />
<glyph unicode="&#xbf;" horiz-adv-x="793" d="M123 -159q0 91 43 173.5t149 191.5q80 82 111.5 131.5t31.5 91.5q0 49 -27.5 78t-73.5 29q-24 0 -48 -8t-42 -23l44 111q10 2 20 3t26 1q107 0 174 -60.5t67 -157.5q0 -81 -36 -152t-123 -164q-106 -114 -141 -166.5t-35 -100.5q0 -66 50 -112q50 -45 123 -45 q42 0 92 26.5t85 67.5l17 -111q-54 -30 -111 -47t-103 -17q-131 0 -212 72t-81 188zM294 845q0 50 34 84t84 34t84 -34t34 -84t-34 -84.5t-84 -34.5t-84 34.5t-34 84.5z" />
<glyph unicode="&#xc0;" horiz-adv-x="1360" d="M24 -5q10 14 36 65l93 187l208 446q190 419 302 706h24h25q113 -284 296 -704l199 -448l119 -252q-50 5 -113 5t-112 -5q-13 53 -30.5 103.5t-58.5 148.5l-114 274q-113 15 -255 17q-30 1 -59 1q-110 0 -198 -18q-64 -146 -114 -274q-37 -90 -54 -140.5t-31 -111.5 q-36 5 -82 5q-45 0 -81 -5zM442 653q80 -12 173 -12h27q107 2 199 14l-20 48l-177 407l-180 -405zM415 1784l3 54q71 -15 120.5 -15t114.5 15q41 -95 76 -163t91 -161h-95q-101 96 -179 162q-56 50 -131 108z" />
<glyph unicode="&#xc1;" horiz-adv-x="1360" d="M24 -5q10 14 36 65l93 187l208 446q190 419 302 706h24h25q113 -284 296 -704l199 -448l119 -252q-50 5 -113 5t-112 -5q-13 53 -30.5 103.5t-58.5 148.5l-114 274q-113 15 -255 17q-30 1 -59 1q-110 0 -198 -18q-64 -146 -114 -274q-37 -90 -54 -140.5t-31 -111.5 q-36 5 -82 5q-45 0 -81 -5zM442 653q80 -12 173 -12h27q107 2 199 14l-20 48l-177 407l-180 -405zM590 1514q57 93 93 161t77 163q65 -15 114.5 -15t120.5 15l2 -53l-137 -109q-76 -65 -175 -162h-95z" />
<glyph unicode="&#xc2;" horiz-adv-x="1360" d="M24 -5q10 14 36 65l93 187l208 446q190 419 302 706h24h25q113 -284 296 -704l199 -448l119 -252q-50 5 -113 5t-112 -5q-13 53 -30.5 103.5t-58.5 148.5l-114 274q-113 15 -255 17q-30 1 -59 1q-110 0 -198 -18q-64 -146 -114 -274q-37 -90 -54 -140.5t-31 -111.5 q-36 5 -82 5q-45 0 -81 -5zM442 653q80 -12 173 -12h27q107 2 199 14l-20 48l-177 407l-180 -405zM353 1594q7 3 24.5 15t35.5 28l83 72q82 75 133 129h58h58q49 -54 130 -128l85 -73q18 -15 35.5 -27.5t25.5 -15.5q-49 -19 -82 -37q-34 -18 -77 -49q-7 16 -34.5 54 t-60.5 77l-80 95l-80 -95q-36 -42 -65 -79.5t-34 -49.5q-42 30 -75 48q-32 17 -80 36z" />
<glyph unicode="&#xc3;" horiz-adv-x="1360" d="M24 -5q10 14 36 65l93 187l208 446q190 419 302 706h24h25q113 -284 296 -704l199 -448l119 -252q-50 5 -113 5t-112 -5q-13 53 -30.5 103.5t-58.5 148.5l-114 274q-113 15 -255 17q-30 1 -59 1q-110 0 -198 -18q-64 -146 -114 -274q-37 -90 -54 -140.5t-31 -111.5 q-36 5 -82 5q-45 0 -81 -5zM442 653q80 -12 173 -12h27q107 2 199 14l-20 48l-177 407l-180 -405zM372 1580q20 84 70 142t103 58q22 0 62 -8t100 -24q41 -11 79.5 -19t53.5 -8q34 0 56.5 12.5t48.5 44.5l57 -9q-9 -83 -59.5 -140.5t-113.5 -57.5q-25 0 -65 8t-97 25 q-42 12 -81 20.5t-52 8.5q-33 0 -55.5 -13.5t-49.5 -48.5z" />
<glyph unicode="&#xc4;" horiz-adv-x="1360" d="M24 -5q10 14 36 65l93 187l208 446q190 419 302 706h24h25q113 -284 296 -704l199 -448l119 -252q-50 5 -113 5t-112 -5q-13 53 -30.5 103.5t-58.5 148.5l-114 274q-113 15 -255 17q-30 1 -59 1q-110 0 -198 -18q-64 -146 -114 -274q-37 -90 -54 -140.5t-31 -111.5 q-36 5 -82 5q-45 0 -81 -5zM442 653q80 -12 173 -12h27q107 2 199 14l-20 48l-177 407l-180 -405zM368 1668q0 43 29.5 72.5t71.5 29.5t71.5 -29.5t29.5 -72.5q0 -42 -29.5 -71.5t-71.5 -29.5t-71.5 29.5t-29.5 71.5zM803 1668q0 43 29.5 72.5t71.5 29.5t71.5 -29.5 t29.5 -72.5q0 -42 -29.5 -71.5t-71.5 -29.5t-71.5 29.5t-29.5 71.5z" />
<glyph unicode="&#xc5;" horiz-adv-x="1360" d="M24 -5q10 14 36 65l93 187l208 446q190 419 302 706h24h25q113 -284 296 -704l199 -448l119 -252q-50 5 -113 5t-112 -5q-13 53 -30.5 103.5t-58.5 148.5l-114 274q-113 15 -255 17q-30 1 -59 1q-110 0 -198 -18q-64 -146 -114 -274q-37 -90 -54 -140.5t-31 -111.5 q-36 5 -82 5q-45 0 -81 -5zM442 653q80 -12 173 -12h27q107 2 199 14l-20 48l-177 407l-180 -405zM516 1681q0 72 49.5 122t121.5 50t122 -50t50 -122t-50 -121.5t-122 -49.5t-121.5 49.5t-49.5 121.5zM608 1681q0 -33 23 -56t56 -23q34 0 57 23t23 56q0 34 -23 57t-57 23 q-33 0 -56 -23t-23 -57z" />
<glyph unicode="&#xc6;" horiz-adv-x="1662" d="M-55 -5q7 9 37 59l115 193l264 450l267 466l109 187q29 50 35 65q53 -7 125 -11.5t123 -4.5h251q93 0 166 4t128 13q-6 -31 -6 -70t6 -69q-34 7 -122.5 12.5t-171.5 5.5l-107 1l-147 -1q-6 -222 -7 -516l188 1q91 0 185.5 5t129.5 12q-6 -29 -6 -67t6 -67 q-35 7 -129.5 12t-185.5 5l-187 1q-1 -335 6 -579q65 -5 141 -4h71q94 0 195 6.5t141 14.5q-6 -31 -6 -71q0 -39 6 -70q-44 7 -132 12t-162 5l-251 5l-201 -5q4 20 6.5 70.5t6.5 181.5l3 283q-92 10 -206 10q-145 0 -255 -17l-149 -276q-49 -93 -71.5 -143.5t-40.5 -108.5 q-37 5 -84 5t-84 -5zM445 650q83 -10 184 -9q113 0 206 11l1 47q0 338 -6 586q-158 -238 -349 -572z" />
<glyph unicode="&#xc7;" horiz-adv-x="1360" d="M90 676q0 335 209.5 543t546.5 208q129 0 239.5 -22t220.5 -69q-16 -49 -26 -84.5t-21 -85.5l-33 -1q-67 79 -169.5 126t-207.5 47q-249 0 -399 -179t-150 -477q0 -270 152 -445.5t385 -175.5q122 0 236.5 44.5t191.5 121.5l17 -22q-7 -34 -11 -60t-6 -61 q-106 -58 -217 -85t-247 -27q-317 0 -514 195t-197 509zM453 -378l41 70q40 -32 93.5 -51.5t103 -19.5t79.5 24.5t30 65.5q0 32 -26 54.5t-64 22.5q-24 0 -43 -3.5t-27 -9.5l-29 35l139 224h102l-116 -165l45 1q67 0 109 -40.5t42 -105.5q0 -83 -63.5 -134t-166.5 -51 q-70 0 -132 20.5t-117 62.5z" />
<glyph unicode="&#xc8;" horiz-adv-x="1020" d="M147 -16q4 20 6.5 70.5t6.5 181.5q4 206 4 464q0 259 -4 463q-4 131 -6.5 181.5t-6.5 70.5q36 -7 120 -11.5t170 -4.5l155 1q93 0 166.5 4t127.5 13q-6 -31 -6 -70t6 -69q-35 8 -123 13.5t-171 5.5h-72h-37q-73 0 -139 -3l-6 -514l181 1q90 0 184.5 5t130.5 12 q-6 -30 -6 -69q0 -38 6 -68q-36 7 -130.5 12t-184.5 5l-180 1v-81q0 -280 6 -494l137 -2h68q93 0 194 6.5t142 14.5q-6 -31 -6 -71q0 -39 6 -70q-43 7 -131.5 12t-162.5 5l-155 1q-79 0 -163 -4.5t-127 -11.5zM211 1784l3 54q71 -15 120.5 -15t114.5 15q41 -95 76 -163 t91 -161h-95q-101 96 -179 162q-56 50 -131 108z" />
<glyph unicode="&#xc9;" horiz-adv-x="1020" d="M147 -16q4 20 6.5 70.5t6.5 181.5q4 206 4 464q0 259 -4 463q-4 131 -6.5 181.5t-6.5 70.5q36 -7 120 -11.5t170 -4.5l155 1q93 0 166.5 4t127.5 13q-6 -31 -6 -70t6 -69q-35 8 -123 13.5t-171 5.5h-72h-37q-73 0 -139 -3l-6 -514l181 1q90 0 184.5 5t130.5 12 q-6 -30 -6 -69q0 -38 6 -68q-36 7 -130.5 12t-184.5 5l-180 1v-81q0 -280 6 -494l137 -2h68q93 0 194 6.5t142 14.5q-6 -31 -6 -71q0 -39 6 -70q-43 7 -131.5 12t-162.5 5l-155 1q-79 0 -163 -4.5t-127 -11.5zM386 1514q57 93 93 161t77 163q65 -15 114.5 -15t120.5 15 l2 -53l-137 -109q-76 -65 -175 -162h-95z" />
<glyph unicode="&#xca;" horiz-adv-x="1020" d="M147 -16q4 20 6.5 70.5t6.5 181.5q4 206 4 464q0 259 -4 463q-4 131 -6.5 181.5t-6.5 70.5q36 -7 120 -11.5t170 -4.5l155 1q93 0 166.5 4t127.5 13q-6 -31 -6 -70t6 -69q-35 8 -123 13.5t-171 5.5h-72h-37q-73 0 -139 -3l-6 -514l181 1q90 0 184.5 5t130.5 12 q-6 -30 -6 -69q0 -38 6 -68q-36 7 -130.5 12t-184.5 5l-180 1v-81q0 -280 6 -494l137 -2h68q93 0 194 6.5t142 14.5q-6 -31 -6 -71q0 -39 6 -70q-43 7 -131.5 12t-162.5 5l-155 1q-79 0 -163 -4.5t-127 -11.5zM149 1594q7 3 24.5 15t35.5 28l83 72q82 75 133 129h58h58 q49 -54 130 -128l85 -73q18 -15 35.5 -27.5t25.5 -15.5q-49 -19 -82 -37q-34 -18 -77 -49q-7 16 -34.5 54t-60.5 77l-80 95l-80 -95q-36 -42 -65 -79.5t-34 -49.5q-42 30 -75 48q-32 17 -80 36z" />
<glyph unicode="&#xcb;" horiz-adv-x="1020" d="M147 -16q4 20 6.5 70.5t6.5 181.5q4 206 4 464q0 259 -4 463q-4 131 -6.5 181.5t-6.5 70.5q36 -7 120 -11.5t170 -4.5l155 1q93 0 166.5 4t127.5 13q-6 -31 -6 -70t6 -69q-35 8 -123 13.5t-171 5.5h-72h-37q-73 0 -139 -3l-6 -514l181 1q90 0 184.5 5t130.5 12 q-6 -30 -6 -69q0 -38 6 -68q-36 7 -130.5 12t-184.5 5l-180 1v-81q0 -280 6 -494l137 -2h68q93 0 194 6.5t142 14.5q-6 -31 -6 -71q0 -39 6 -70q-43 7 -131.5 12t-162.5 5l-155 1q-79 0 -163 -4.5t-127 -11.5zM164 1668q0 43 29.5 72.5t71.5 29.5t71.5 -29.5t29.5 -72.5 q0 -42 -29.5 -71.5t-71.5 -29.5t-71.5 29.5t-29.5 71.5zM599 1668q0 43 29.5 72.5t71.5 29.5t71.5 -29.5t29.5 -72.5q0 -42 -29.5 -71.5t-71.5 -29.5t-71.5 29.5t-29.5 71.5z" />
<glyph unicode="&#xcc;" horiz-adv-x="566" d="M174 -5q4 20 7 71q2 50 6 181q4 203 4 452q0 253 -4 453q-4 131 -6.5 181.5t-6.5 70.5q46 -5 104 -5t104 5q-4 -20 -6.5 -70.5t-6.5 -181.5q-4 -202 -4 -452q0 -252 4 -453q4 -131 6.5 -181.5t6.5 -70.5q-46 5 -104 5t-104 -5zM20 1784l3 54q71 -15 120.5 -15t114.5 15 q41 -95 76 -163t91 -161h-95q-101 96 -179 162q-56 50 -131 108z" />
<glyph unicode="&#xcd;" horiz-adv-x="566" d="M179 -5q4 20 7 71q2 50 6 181q4 203 4 452q0 253 -4 453q-4 131 -6.5 181.5t-6.5 70.5q46 -5 104 -5t104 5q-4 -20 -6.5 -70.5t-6.5 -181.5q-4 -202 -4 -452q0 -252 4 -453q4 -131 6.5 -181.5t6.5 -70.5q-46 5 -104 5t-104 -5zM172 1514q57 93 93 161t77 163 q65 -15 114.5 -15t120.5 15l2 -53l-137 -109q-76 -65 -175 -162h-95z" />
<glyph unicode="&#xce;" horiz-adv-x="566" d="M188 -5q4 20 7 71q2 50 6 181q4 203 4 452q0 253 -4 453q-4 131 -6.5 181.5t-6.5 70.5q46 -5 104 -5t104 5q-4 -20 -6.5 -70.5t-6.5 -181.5q-4 -202 -4 -452q0 -252 4 -453q4 -131 6.5 -181.5t6.5 -70.5q-46 5 -104 5t-104 -5zM-42 1594q7 3 24.5 15t35.5 28l83 72 q82 75 133 129h58h58q49 -54 130 -128l85 -73q18 -15 35.5 -27.5t25.5 -15.5q-49 -19 -82 -37q-34 -18 -77 -49q-7 16 -34.5 54t-60.5 77l-80 95l-80 -95q-36 -42 -65 -79.5t-34 -49.5q-42 30 -75 48q-32 17 -80 36z" />
<glyph unicode="&#xcf;" horiz-adv-x="566" d="M169 -5q4 20 7 71q2 50 6 181q4 203 4 452q0 253 -4 453q-4 131 -6.5 181.5t-6.5 70.5q46 -5 104 -5t104 5q-4 -20 -6.5 -70.5t-6.5 -181.5q-4 -202 -4 -452q0 -252 4 -453q4 -131 6.5 -181.5t6.5 -70.5q-46 5 -104 5t-104 -5zM-18 1668q0 43 29.5 72.5t71.5 29.5 t71.5 -29.5t29.5 -72.5q0 -42 -29.5 -71.5t-71.5 -29.5t-71.5 29.5t-29.5 71.5zM417 1668q0 43 29.5 72.5t71.5 29.5t71.5 -29.5t29.5 -72.5q0 -42 -29.5 -71.5t-71.5 -29.5t-71.5 29.5t-29.5 71.5z" />
<glyph unicode="&#xd0;" horiz-adv-x="1586" d="M63 663v99h165l-4 390q-4 131 -6.5 181.5t-6.5 70.5l104 -5l488 5q334 0 514 -171.5t180 -488.5q0 -349 -215.5 -549t-592.5 -200l-374 5l-104 -5q4 20 6.5 70.5t6.5 181.5l4 416h-165zM402 663q0 -317 6 -552q128 -13 299 -11q284 0 432 168.5t148 491.5 q0 264 -146.5 401.5t-429.5 137.5q-174 0 -301 -9q-8 -229 -8 -528h159v-99h-159z" />
<glyph unicode="&#xd1;" horiz-adv-x="1586" d="M202 -5q4 20 6.5 70.5t6.5 181.5q4 203 4 452t-4 448q-4 131 -6.5 181.5t-6.5 70.5h30h30l668 -724l337 -350l1 360q0 259 -4 467q-4 132 -6.5 182.5t-6.5 69.5q31 -5 71 -5t71 5q-4 -19 -6.5 -69.5t-6.5 -182.5q-4 -207 -4 -466q0 -428 10 -714h-28h-28l-668 724 l-339 353v-349q1 -252 7 -453q4 -128 7 -178.5t7 -73.5q-31 5 -71 5t-71 -5zM482 1580q20 84 70 142t103 58q22 0 62 -8t100 -24q41 -11 79.5 -19t53.5 -8q34 0 56.5 12.5t48.5 44.5l57 -9q-9 -83 -59.5 -140.5t-113.5 -57.5q-25 0 -65 8t-97 25q-42 12 -81 20.5t-52 8.5 q-33 0 -55.5 -13.5t-49.5 -48.5z" />
<glyph unicode="&#xd2;" horiz-adv-x="1699" d="M93 675q0 335 213.5 543.5t556.5 208.5q335 0 542 -195t207 -509q0 -335 -213.5 -543t-557.5 -208q-333 0 -540.5 194.5t-207.5 508.5zM303 682q0 -282 150 -451.5t399 -169.5q251 0 400.5 178.5t149.5 476.5q0 283 -149.5 452.5t-400.5 169.5q-249 0 -399 -179 t-150 -477zM580 1784l3 54q71 -15 120.5 -15t114.5 15q41 -95 76 -163t91 -161h-95q-101 96 -179 162q-56 50 -131 108z" />
<glyph unicode="&#xd3;" horiz-adv-x="1699" d="M93 675q0 335 213.5 543.5t556.5 208.5q335 0 542 -195t207 -509q0 -335 -213.5 -543t-557.5 -208q-333 0 -540.5 194.5t-207.5 508.5zM303 682q0 -282 150 -451.5t399 -169.5q251 0 400.5 178.5t149.5 476.5q0 283 -149.5 452.5t-400.5 169.5q-249 0 -399 -179 t-150 -477zM755 1514q57 93 93 161t77 163q65 -15 114.5 -15t120.5 15l2 -53l-137 -109q-76 -65 -175 -162h-95z" />
<glyph unicode="&#xd4;" horiz-adv-x="1699" d="M93 675q0 335 213.5 543.5t556.5 208.5q335 0 542 -195t207 -509q0 -335 -213.5 -543t-557.5 -208q-333 0 -540.5 194.5t-207.5 508.5zM303 682q0 -282 150 -451.5t399 -169.5q251 0 400.5 178.5t149.5 476.5q0 283 -149.5 452.5t-400.5 169.5q-249 0 -399 -179 t-150 -477zM518 1594q7 3 24.5 15t35.5 28l83 72q82 75 133 129h58h58q49 -54 130 -128l85 -73q18 -15 35.5 -27.5t25.5 -15.5q-49 -19 -82 -37q-34 -18 -77 -49q-7 16 -34.5 54t-60.5 77l-80 95l-80 -95q-36 -42 -65 -79.5t-34 -49.5q-42 30 -75 48q-32 17 -80 36z" />
<glyph unicode="&#xd5;" horiz-adv-x="1699" d="M93 675q0 335 213.5 543.5t556.5 208.5q335 0 542 -195t207 -509q0 -335 -213.5 -543t-557.5 -208q-333 0 -540.5 194.5t-207.5 508.5zM303 682q0 -282 150 -451.5t399 -169.5q251 0 400.5 178.5t149.5 476.5q0 283 -149.5 452.5t-400.5 169.5q-249 0 -399 -179 t-150 -477zM537 1580q20 84 70 142t103 58q22 0 62 -8t100 -24q41 -11 79.5 -19t53.5 -8q34 0 56.5 12.5t48.5 44.5l57 -9q-9 -83 -59.5 -140.5t-113.5 -57.5q-25 0 -65 8t-97 25q-42 12 -81 20.5t-52 8.5q-33 0 -55.5 -13.5t-49.5 -48.5z" />
<glyph unicode="&#xd6;" horiz-adv-x="1699" d="M93 675q0 335 213.5 543.5t556.5 208.5q335 0 542 -195t207 -509q0 -335 -213.5 -543t-557.5 -208q-333 0 -540.5 194.5t-207.5 508.5zM303 682q0 -282 150 -451.5t399 -169.5q251 0 400.5 178.5t149.5 476.5q0 283 -149.5 452.5t-400.5 169.5q-249 0 -399 -179 t-150 -477zM533 1668q0 43 29.5 72.5t71.5 29.5t71.5 -29.5t29.5 -72.5q0 -42 -29.5 -71.5t-71.5 -29.5t-71.5 29.5t-29.5 71.5zM968 1668q0 43 29.5 72.5t71.5 29.5t71.5 -29.5t29.5 -72.5q0 -42 -29.5 -71.5t-71.5 -29.5t-71.5 29.5t-29.5 71.5z" />
<glyph unicode="&#xd7;" horiz-adv-x="1813" d="M376 47l454 453l-454 453l77 77l453 -454l453 454l77 -77l-454 -453l454 -453l-77 -77l-453 454l-453 -454z" />
<glyph unicode="&#xd8;" horiz-adv-x="1699" d="M81 89l159 135q-153 181 -153 451q0 335 213.5 543.5t556.5 208.5q309 0 510 -166l153 152q22 -31 41 -49q19 -19 50 -40l-165 -141q161 -184 160 -460q0 -335 -213.5 -543t-557.5 -208q-315 0 -518 174l-145 -146q-22 31 -41 50q-19 18 -50 39zM297 682q0 -200 75 -344 l441 399l33 30l412 387l-12 15q-149 169 -400 169q-249 0 -399 -179t-150 -477zM428 253l19 -23q150 -169 399 -169q251 0 400.5 178.5t149.5 476.5q0 207 -80 353l-437 -393l-33 -30z" />
<glyph unicode="&#xd9;" horiz-adv-x="1586" d="M211 1404q46 -5 104 -5t104 5q-6 -28 -9 -78.5t-7 -173.5q-5 -207 -5 -466v-83q1 -267 107 -395.5t326 -128.5q230 0 336 136q105 135 105 425v5v40l-2 467q-2 128 -4 178.5t-6 73.5q33 -5 74 -5t74 5q-7 -35 -10.5 -85.5t-7.5 -166.5q-6 -207 -6 -466v-76 q0 -313 -149 -475.5t-437 -162.5q-292 0 -432.5 139t-141.5 429v145l-2 467q-2 124 -4 174.5t-7 77.5zM567 1784l3 54q71 -15 120.5 -15t114.5 15q41 -95 76 -163t91 -161h-95q-101 96 -179 162q-56 50 -131 108z" />
<glyph unicode="&#xda;" horiz-adv-x="1586" d="M211 1404q46 -5 104 -5t104 5q-6 -28 -9 -78.5t-7 -173.5q-5 -207 -5 -466v-83q1 -267 107 -395.5t326 -128.5q230 0 336 136q105 135 105 425v5v40l-2 467q-2 128 -4 178.5t-6 73.5q33 -5 74 -5t74 5q-7 -35 -10.5 -85.5t-7.5 -166.5q-6 -207 -6 -466v-76 q0 -313 -149 -475.5t-437 -162.5q-292 0 -432.5 139t-141.5 429v145l-2 467q-2 124 -4 174.5t-7 77.5zM742 1514q57 93 93 161t77 163q65 -15 114.5 -15t120.5 15l2 -53l-137 -109q-76 -65 -175 -162h-95z" />
<glyph unicode="&#xdb;" horiz-adv-x="1586" d="M211 1404q46 -5 104 -5t104 5q-6 -28 -9 -78.5t-7 -173.5q-5 -207 -5 -466v-83q1 -267 107 -395.5t326 -128.5q230 0 336 136q105 135 105 425v5v40l-2 467q-2 128 -4 178.5t-6 73.5q33 -5 74 -5t74 5q-7 -35 -10.5 -85.5t-7.5 -166.5q-6 -207 -6 -466v-76 q0 -313 -149 -475.5t-437 -162.5q-292 0 -432.5 139t-141.5 429v145l-2 467q-2 124 -4 174.5t-7 77.5zM505 1594q7 3 24.5 15t35.5 28l83 72q82 75 133 129h58h58q49 -54 130 -128l85 -73q18 -15 35.5 -27.5t25.5 -15.5q-49 -19 -82 -37q-34 -18 -77 -49q-7 16 -34.5 54 t-60.5 77l-80 95l-80 -95q-36 -42 -65 -79.5t-34 -49.5q-42 30 -75 48q-32 17 -80 36z" />
<glyph unicode="&#xdc;" horiz-adv-x="1586" d="M211 1404q46 -5 104 -5t104 5q-6 -28 -9 -78.5t-7 -173.5q-5 -207 -5 -466v-83q1 -267 107 -395.5t326 -128.5q230 0 336 136q105 135 105 425v5v40l-2 467q-2 128 -4 178.5t-6 73.5q33 -5 74 -5t74 5q-7 -35 -10.5 -85.5t-7.5 -166.5q-6 -207 -6 -466v-76 q0 -313 -149 -475.5t-437 -162.5q-292 0 -432.5 139t-141.5 429v145l-2 467q-2 124 -4 174.5t-7 77.5zM520 1668q0 43 29.5 72.5t71.5 29.5t71.5 -29.5t29.5 -72.5q0 -42 -29.5 -71.5t-71.5 -29.5t-71.5 29.5t-29.5 71.5zM955 1668q0 43 29.5 72.5t71.5 29.5t71.5 -29.5 t29.5 -72.5q0 -42 -29.5 -71.5t-71.5 -29.5t-71.5 29.5t-29.5 71.5z" />
<glyph unicode="&#xdd;" horiz-adv-x="1246" d="M32 1404q55 -5 126 -5t126 5q19 -56 43.5 -106.5t78.5 -145.5l76 -138q100 -178 179 -306q76 122 167 288l86 156q48 84 71.5 134.5t46.5 117.5q40 -5 90 -5t89 5q-10 -11 -43 -62l-122 -190l-118 -189l-207 -348v-116q0 -236 3 -336.5t13 -167.5q-46 5 -104 5t-104 -5 q10 67 13 167.5t3 336.5v74l-221 375l-127 204l-122 190q-33 51 -43 62zM524 1514q57 93 93 161t77 163q65 -15 114.5 -15t120.5 15l2 -53l-137 -109q-76 -65 -175 -162h-95z" />
<glyph unicode="&#xde;" d="M176 -5q4 20 7 71q2 50 6 181q5 203 4 452q0 253 -4 453q-4 131 -6.5 181.5t-6.5 70.5q46 -5 104 -5t104 5q-4 -19 -6.5 -69.5t-6.5 -182.5q1 -19 -2 -39l233 1q240 0 357.5 -84t117.5 -256q0 -211 -140.5 -318.5t-416.5 -107.5q-88 0 -151 11l2 -112q4 -132 6.5 -182.5 t6.5 -69.5q-46 5 -104 5t-104 -5zM367 700l1 -245q48 -10 106 -10q194 0 301 82t107 231q0 121 -91.5 187.5t-257.5 66.5q-95 0 -163 -9q-4 -142 -3 -303z" />
<glyph unicode="&#xdf;" d="M162 -5q4 21 6.5 56t4.5 120q7 255 6 594l-1 312q0 219 107 336.5t306 117.5q127 0 206 -64.5t79 -168.5q0 -65 -29.5 -123.5t-102.5 -138.5q-56 -61 -78.5 -102t-22.5 -80q0 -41 39 -83t138 -107q114 -75 167 -150t53 -161q0 -153 -113 -265.5t-267 -112.5 q-48 0 -101 20t-91 52q16 40 25.5 69t19.5 69q35 -55 83.5 -85.5t100.5 -30.5q90 0 146 59t56 154q0 58 -43.5 115t-137.5 123q-129 90 -176 149t-47 131q0 43 30 93.5t105 132.5q45 50 75 122.5t30 133.5q0 79 -47 127.5t-123 48.5q-118 0 -172.5 -81.5t-54.5 -258.5v-41 h-1l-1 -311q0 -338 5 -595q2 -81 4.5 -116t7.5 -60q-42 5 -96 5q-53 0 -95 -5z" />
<glyph unicode="&#xe0;" horiz-adv-x="982" d="M74 238q0 108 71.5 178t209.5 96l253 49q45 9 60.5 27.5t15.5 63.5v14q0 125 -60.5 190t-177.5 65q-95 0 -160 -39.5t-101 -119.5h-23l-1 116q64 53 150 84.5t165 31.5q175 0 269 -85t94 -243v-519q0 -49 16 -74t46 -25q22 0 36 4l11 -45q-55 -32 -142 -32h-5 q-59 0 -91 52q-18 32 -28 81q-32 -33 -75 -60q-115 -73 -248 -73q-127 0 -206 73t-79 190zM260 258q0 -83 47 -128t134 -45q97 0 167 45q45 30 76 74v295l-192 -36q-116 -23 -174 -74t-58 -131zM222 1374l4 34q64 -13 109.5 -13t107.5 13q41 -95 77 -163t94 -161h-71 q-97 96 -170 162q-63 57 -151 128z" />
<glyph unicode="&#xe1;" horiz-adv-x="982" d="M74 238q0 108 71.5 178t209.5 96l253 49q45 9 60.5 27.5t15.5 63.5v14q0 125 -60.5 190t-177.5 65q-95 0 -160 -39.5t-101 -119.5h-23l-1 116q64 53 150 84.5t165 31.5q175 0 269 -85t94 -243v-519q0 -49 16 -74t46 -25q22 0 36 4l11 -45q-55 -32 -142 -32h-5 q-59 0 -91 52q-18 32 -28 81q-32 -33 -75 -60q-115 -73 -248 -73q-127 0 -206 73t-79 190zM260 258q0 -83 47 -128t134 -45q97 0 167 45q45 30 76 74v295l-192 -36q-116 -23 -174 -74t-58 -131zM374 1084q59 93 95.5 161t78.5 163q63 -13 109 -13t111 13l3 -34 q-90 -70 -156 -128q-73 -65 -167 -162h-74z" />
<glyph unicode="&#xe2;" horiz-adv-x="982" d="M74 238q0 108 71.5 178t209.5 96l253 49q45 9 60.5 27.5t15.5 63.5v14q0 125 -60.5 190t-177.5 65q-95 0 -160 -39.5t-101 -119.5h-23l-1 116q64 53 150 84.5t165 31.5q175 0 269 -85t94 -243v-519q0 -49 16 -74t46 -25q22 0 36 4l11 -45q-55 -32 -142 -32h-5 q-59 0 -91 52q-18 32 -28 81q-32 -33 -75 -60q-115 -73 -248 -73q-127 0 -206 73t-79 190zM260 258q0 -83 47 -128t134 -45q97 0 167 45q45 30 76 74v295l-192 -36q-116 -23 -174 -74t-58 -131zM191 1126q13 6 40 37l81 91q68 80 109 138h58h58q39 -58 107 -138l83 -92 q11 -12 22.5 -22.5t17.5 -13.5q-36 -14 -61 -27t-57 -35q-5 12 -24.5 40.5t-43.5 57.5l-102 126l-102 -126q-25 -31 -45.5 -59t-24.5 -38q-32 21 -56 34t-60 27z" />
<glyph unicode="&#xe3;" horiz-adv-x="982" d="M74 238q0 108 71.5 178t209.5 96l253 49q45 9 60.5 27.5t15.5 63.5v14q0 125 -60.5 190t-177.5 65q-95 0 -160 -39.5t-101 -119.5h-23l-1 116q64 53 150 84.5t165 31.5q175 0 269 -85t94 -243v-519q0 -49 16 -74t46 -25q22 0 36 4l11 -45q-55 -32 -142 -32h-5 q-59 0 -91 52q-18 32 -28 81q-32 -33 -75 -60q-115 -73 -248 -73q-127 0 -206 73t-79 190zM260 258q0 -83 47 -128t134 -45q97 0 167 45q45 30 76 74v295l-192 -36q-116 -23 -174 -74t-58 -131zM189 1139q18 79 64 133.5t96 54.5q19 0 55.5 -6.5t90.5 -19.5q37 -9 73.5 -15 t52.5 -6q31 0 51.5 9.5t43.5 35.5h53q-17 -78 -63.5 -132t-96.5 -54q-22 0 -58.5 6.5t-87.5 19.5q-39 10 -75.5 17t-50.5 7q-31 0 -51.5 -10.5t-43.5 -39.5h-53z" />
<glyph unicode="&#xe4;" horiz-adv-x="982" d="M74 238q0 108 71.5 178t209.5 96l253 49q45 9 60.5 27.5t15.5 63.5v14q0 125 -60.5 190t-177.5 65q-95 0 -160 -39.5t-101 -119.5h-23l-1 116q64 53 150 84.5t165 31.5q175 0 269 -85t94 -243v-519q0 -49 16 -74t46 -25q22 0 36 4l11 -45q-55 -32 -142 -32h-5 q-59 0 -91 52q-18 32 -28 81q-32 -33 -75 -60q-115 -73 -248 -73q-127 0 -206 73t-79 190zM260 258q0 -83 47 -128t134 -45q97 0 167 45q45 30 76 74v295l-192 -36q-116 -23 -174 -74t-58 -131zM176 1231q0 41 28 69.5t69 28.5t69 -28.5t28 -69.5t-28 -69t-69 -28t-69 28 t-28 69zM587 1231q0 41 28 69.5t69 28.5t69 -28.5t28 -69.5t-28 -69t-69 -28t-69 28t-28 69z" />
<glyph unicode="&#xe5;" horiz-adv-x="982" d="M74 238q0 108 71.5 178t209.5 96l253 49q45 9 60.5 27.5t15.5 63.5v14q0 125 -60.5 190t-177.5 65q-95 0 -160 -39.5t-101 -119.5h-23l-1 116q64 53 150 84.5t165 31.5q175 0 269 -85t94 -243v-519q0 -49 16 -74t46 -25q22 0 36 4l11 -45q-55 -32 -142 -32h-5 q-59 0 -91 52q-18 32 -28 81q-32 -33 -75 -60q-115 -73 -248 -73q-127 0 -206 73t-79 190zM260 258q0 -83 47 -128t134 -45q97 0 167 45q45 30 76 74v295l-192 -36q-116 -23 -174 -74t-58 -131zM322 1240q0 66 45.5 111.5t111.5 45.5t111.5 -45.5t45.5 -111.5t-45.5 -111.5 t-111.5 -45.5t-111.5 45.5t-45.5 111.5zM404 1240q0 -31 21.5 -52.5t53.5 -21.5t53.5 21.5t21.5 52.5t-21.5 52.5t-53.5 21.5t-53.5 -21.5t-21.5 -52.5z" />
<glyph unicode="&#xe6;" horiz-adv-x="1586" d="M81 247q0 104 84.5 174.5t246.5 101.5l203 39q32 6 41.5 16t13.5 42l6 46q0 105 -59 160t-172 55q-95 0 -157 -30.5t-96 -93.5h-24l-1 121q64 53 148.5 84.5t160.5 31.5q171 0 263 -85q27 -25 45 -55q128 140 327 140h2q205 0 313 -116q95 -102 107 -285q3 -35 3 -72 l-2 -55v-1q-45 7 -146 12t-202 5h-335v-38q0 -190 84 -293t239 -103q99 0 181.5 38.5t142.5 113.5l18 -23q-7 -26 -11 -44.5t-7 -45.5q-79 -56 -173.5 -84t-202.5 -28q-217 0 -342 134l-18 21q-60 -44 -127 -78q-150 -77 -274 -77q-125 0 -202.5 75.5t-77.5 196.5zM267 268 q0 -86 51 -133t146 -47q74 0 168 58q40 24 78 57q-48 132 -49 292l-108 -20q-143 -27 -214.5 -78.5t-71.5 -128.5zM856 569h492v40q0 140 -64.5 226t-169.5 86q-130 0 -197 -121q-47 -84 -61 -231z" />
<glyph unicode="&#xe7;" horiz-adv-x="982" d="M80 476q0 231 142 374.5t370 143.5q84 0 174 -21.5t172 -61.5q-15 -42 -24 -74t-18 -77h-29q-39 76 -109.5 118.5t-158.5 42.5q-151 0 -242 -123.5t-91 -329.5q0 -181 104 -300.5t261 -119.5q77 0 145.5 33.5t126.5 99.5l18 -23l-18 -90q-63 -46 -143.5 -69.5 t-175.5 -23.5q-225 0 -364.5 139t-139.5 362zM252 -355l40 68q42 -32 96 -51.5t103.5 -19.5t80 24t30.5 64q0 34 -26.5 54.5t-71.5 20.5q-27 0 -48 -3.5t-30 -8.5l-27 29l104 178h77l-68 -117q29 4 60 3q69 0 111.5 -39t42.5 -102q0 -80 -63 -130t-165 -50q-61 0 -129 22 t-117 58z" />
<glyph unicode="&#xe8;" horiz-adv-x="1020" d="M75 477q0 231 126 374t329 143h2q205 0 313 -116q95 -102 107 -285q3 -35 3 -72l-2 -55v-1q-45 7 -146 12t-202 5h-348v-38q0 -190 86.5 -293t245.5 -103q95 0 177 38t151 114l18 -23q-7 -26 -11 -44.5t-7 -45.5q-79 -56 -173.5 -84t-202.5 -28q-208 0 -337 139t-129 363 zM262 569h505v40q0 140 -66 226t-174 86q-134 0 -202 -121q-48 -84 -63 -231zM275 1374l4 34q64 -13 109.5 -13t107.5 13q41 -95 77 -163t94 -161h-71q-97 96 -170 162q-63 57 -151 128z" />
<glyph unicode="&#xe9;" horiz-adv-x="1020" d="M75 477q0 231 126 374t329 143h2q205 0 313 -116q95 -102 107 -285q3 -35 3 -72l-2 -55v-1q-45 7 -146 12t-202 5h-348v-38q0 -190 86.5 -293t245.5 -103q95 0 177 38t151 114l18 -23q-7 -26 -11 -44.5t-7 -45.5q-79 -56 -173.5 -84t-202.5 -28q-208 0 -337 139t-129 363 zM262 569h505v40q0 140 -66 226t-174 86q-134 0 -202 -121q-48 -84 -63 -231zM427 1084q59 93 95.5 161t78.5 163q63 -13 109 -13t111 13l3 -34q-90 -70 -156 -128q-73 -65 -167 -162h-74z" />
<glyph unicode="&#xea;" horiz-adv-x="1020" d="M75 477q0 231 126 374t329 143h2q205 0 313 -116q95 -102 107 -285q3 -35 3 -72l-2 -55v-1q-45 7 -146 12t-202 5h-348v-38q0 -190 86.5 -293t245.5 -103q95 0 177 38t151 114l18 -23q-7 -26 -11 -44.5t-7 -45.5q-79 -56 -173.5 -84t-202.5 -28q-208 0 -337 139t-129 363 zM262 569h505v40q0 140 -66 226t-174 86q-134 0 -202 -121q-48 -84 -63 -231zM244 1126q13 6 40 37l81 91q68 80 109 138h58h58q39 -58 107 -138l83 -92q11 -12 22.5 -22.5t17.5 -13.5q-36 -14 -61 -27t-57 -35q-5 12 -24.5 40.5t-43.5 57.5l-102 126l-102 -126 q-25 -31 -45.5 -59t-24.5 -38q-32 21 -56 34t-60 27z" />
<glyph unicode="&#xeb;" horiz-adv-x="1020" d="M75 477q0 231 126 374t329 143h2q205 0 313 -116q95 -102 107 -285q3 -35 3 -72l-2 -55v-1q-45 7 -146 12t-202 5h-348v-38q0 -190 86.5 -293t245.5 -103q95 0 177 38t151 114l18 -23q-7 -26 -11 -44.5t-7 -45.5q-79 -56 -173.5 -84t-202.5 -28q-208 0 -337 139t-129 363 zM262 569h505v40q0 140 -66 226t-174 86q-134 0 -202 -121q-48 -84 -63 -231zM229 1231q0 41 28 69.5t69 28.5t69 -28.5t28 -69.5t-28 -69t-69 -28t-69 28t-28 69zM640 1231q0 41 28 69.5t69 28.5t69 -28.5t28 -69.5t-28 -69t-69 -28t-69 28t-28 69z" />
<glyph unicode="&#xec;" horiz-adv-x="566" d="M172 -5q5 26 8 61t5 115q4 139 4 316q0 174 -4 311q-2 80 -5 115t-8 61q42 -7 96 -7q53 0 95 7q-7 -28 -10 -63.5t-4 -112.5l-3 -311q0 -177 4 -316q2 -80 5 -115t8 -61q-42 5 -96 5q-53 0 -95 -5zM10 1374l4 34q64 -13 109.5 -13t107.5 13q41 -95 77 -163t94 -161h-71 q-97 96 -170 162q-63 57 -151 128z" />
<glyph unicode="&#xed;" horiz-adv-x="566" d="M198 -5q5 26 8 61t5 115q4 139 4 316q0 174 -4 311q-2 80 -5 115t-8 61q42 -7 96 -7q53 0 95 7q-7 -28 -10 -63.5t-4 -112.5l-3 -311q0 -177 4 -316q2 -80 5 -115t8 -61q-42 5 -96 5q-53 0 -95 -5zM188 1084q59 93 95.5 161t78.5 163q63 -13 109 -13t111 13l3 -34 q-90 -70 -156 -128q-73 -65 -167 -162h-74z" />
<glyph unicode="&#xee;" horiz-adv-x="566" d="M193 -5q5 26 8 61t5 115q4 139 4 316q0 174 -4 311q-2 80 -5 115t-8 61q42 -7 96 -7q53 0 95 7q-7 -28 -10 -63.5t-4 -112.5l-3 -311q0 -177 4 -316q2 -80 5 -115t8 -61q-42 5 -96 5q-53 0 -95 -5zM0 1126q13 6 40 37l81 91q68 80 109 138h58h58q39 -58 107 -138l83 -92 q11 -12 22.5 -22.5t17.5 -13.5q-36 -14 -61 -27t-57 -35q-5 12 -24.5 40.5t-43.5 57.5l-102 126l-102 -126q-25 -31 -45.5 -59t-24.5 -38q-32 21 -56 34t-60 27z" />
<glyph unicode="&#xef;" horiz-adv-x="566" d="M193 -5q5 26 8 61t5 115q4 139 4 316q0 174 -4 311q-2 80 -5 115t-8 61q42 -7 96 -7q53 0 95 7q-7 -28 -10 -63.5t-4 -112.5l-3 -311q0 -177 4 -316q2 -80 5 -115t8 -61q-42 5 -96 5q-53 0 -95 -5zM-15 1231q0 41 28 69.5t69 28.5t69 -28.5t28 -69.5t-28 -69t-69 -28 t-69 28t-28 69zM396 1231q0 41 28 69.5t69 28.5t69 -28.5t28 -69.5t-28 -69t-69 -28t-69 28t-28 69z" />
<glyph unicode="&#xf0;" d="M81 474q0 231 140 374t365 143q75 0 142 -18q-69 124 -166 248l-176 -105l-60 75l175 105q-64 79 -142 158l103 63q86 -73 160 -149l172 103l60 -75l-164 -98q127 -144 215 -291q155 -264 155 -506q0 -252 -131.5 -389t-374.5 -137q-211 0 -342 138t-131 361zM267 468 q0 -202 79 -311t224 -109q138 0 221 122t83 326q0 203 -79 312.5t-225 109.5q-138 0 -221 -123q-82 -122 -82 -327z" />
<glyph unicode="&#xf1;" d="M148 -5q5 25 8 61q3 35 5 115q4 139 4 316v57q0 140 -4 254q-4 88 -6.5 123.5t-6.5 52.5q40 -7 92 -7t92 7q-5 -9 -7.5 -30t-6.5 -75l-4 -59q27 38 57 71q109 113 271 113q152 0 241 -93.5t89 -253.5v-476q0 -47 3 -82t11 -94q-42 5 -95 5t-95 -5q5 25 8 60.5t5 115.5 q4 141 4 314v114q0 134 -63 209.5t-175 75.5q-126 0 -189.5 -82t-63.5 -246v-69q0 -177 4 -316q2 -80 5 -115t8 -61q-42 5 -96 5q-53 0 -95 -5zM273 1139q18 79 64 133.5t96 54.5q19 0 55.5 -6.5t90.5 -19.5q37 -9 73.5 -15t52.5 -6q31 0 51.5 9.5t43.5 35.5h53 q-17 -78 -63.5 -132t-96.5 -54q-22 0 -58.5 6.5t-87.5 19.5q-39 10 -75.5 17t-50.5 7q-31 0 -51.5 -10.5t-43.5 -39.5h-53z" />
<glyph unicode="&#xf2;" d="M81 476q0 231 140.5 374.5t365.5 143.5q211 0 342.5 -139t131.5 -363q0 -231 -140 -374t-366 -143q-211 0 -342.5 139t-131.5 362zM267 470q0 -203 79 -312.5t225 -109.5q138 0 221 122.5t83 327.5q0 203 -79 313t-225 110q-138 0 -221 -123t-83 -328zM314 1374l4 34 q64 -13 109.5 -13t107.5 13q41 -95 77 -163t94 -161h-71q-97 96 -170 162q-63 57 -151 128z" />
<glyph unicode="&#xf3;" d="M81 476q0 231 140.5 374.5t365.5 143.5q211 0 342.5 -139t131.5 -363q0 -231 -140 -374t-366 -143q-211 0 -342.5 139t-131.5 362zM267 470q0 -203 79 -312.5t225 -109.5q138 0 221 122.5t83 327.5q0 203 -79 313t-225 110q-138 0 -221 -123t-83 -328zM466 1084 q59 93 95.5 161t78.5 163q63 -13 109 -13t111 13l3 -34q-90 -70 -156 -128q-73 -65 -167 -162h-74z" />
<glyph unicode="&#xf4;" d="M81 476q0 231 140.5 374.5t365.5 143.5q211 0 342.5 -139t131.5 -363q0 -231 -140 -374t-366 -143q-211 0 -342.5 139t-131.5 362zM267 470q0 -203 79 -312.5t225 -109.5q138 0 221 122.5t83 327.5q0 203 -79 313t-225 110q-138 0 -221 -123t-83 -328zM283 1126 q13 6 40 37l81 91q68 80 109 138h58h58q39 -58 107 -138l83 -92q11 -12 22.5 -22.5t17.5 -13.5q-36 -14 -61 -27t-57 -35q-5 12 -24.5 40.5t-43.5 57.5l-102 126l-102 -126q-25 -31 -45.5 -59t-24.5 -38q-32 21 -56 34t-60 27z" />
<glyph unicode="&#xf5;" d="M81 476q0 231 140.5 374.5t365.5 143.5q211 0 342.5 -139t131.5 -363q0 -231 -140 -374t-366 -143q-211 0 -342.5 139t-131.5 362zM267 470q0 -203 79 -312.5t225 -109.5q138 0 221 122.5t83 327.5q0 203 -79 313t-225 110q-138 0 -221 -123t-83 -328zM281 1139 q18 79 64 133.5t96 54.5q19 0 55.5 -6.5t90.5 -19.5q37 -9 73.5 -15t52.5 -6q31 0 51.5 9.5t43.5 35.5h53q-17 -78 -63.5 -132t-96.5 -54q-22 0 -58.5 6.5t-87.5 19.5q-39 10 -75.5 17t-50.5 7q-31 0 -51.5 -10.5t-43.5 -39.5h-53z" />
<glyph unicode="&#xf6;" d="M81 476q0 231 140.5 374.5t365.5 143.5q211 0 342.5 -139t131.5 -363q0 -231 -140 -374t-366 -143q-211 0 -342.5 139t-131.5 362zM267 470q0 -203 79 -312.5t225 -109.5q138 0 221 122.5t83 327.5q0 203 -79 313t-225 110q-138 0 -221 -123t-83 -328zM268 1231 q0 41 28 69.5t69 28.5t69 -28.5t28 -69.5t-28 -69t-69 -28t-69 28t-28 69zM679 1231q0 41 28 69.5t69 28.5t69 -28.5t28 -69.5t-28 -69t-69 -28t-69 28t-28 69z" />
<glyph unicode="&#xf7;" horiz-adv-x="1813" d="M376 446v109h1056v-109h-1056zM806 224q0 41 28.5 69.5t69.5 28.5t69.5 -28.5t28.5 -69.5t-28.5 -69.5t-69.5 -28.5t-69.5 28.5t-28.5 69.5zM806 777q0 41 28.5 69.5t69.5 28.5t69.5 -28.5t28.5 -69.5t-28.5 -69.5t-69.5 -28.5t-69.5 28.5t-28.5 69.5z" />
<glyph unicode="&#xf8;" d="M71 46l111 107q-100 130 -99 323q0 231 140.5 374.5t365.5 143.5q182 0 305 -104l100 111q22 -22 39 -37l42 -33l-114 -110q103 -132 102 -329q0 -231 -140 -374t-366 -143q-185 0 -310 107l-95 -106q-22 23 -39 38q-17 14 -42 32zM269 470q0 -117 26 -203l245 249l33 34 l234 246l-9 15q-79 110 -225 110q-138 0 -221 -123t-83 -328zM336 177l12 -20q79 -109 225 -109q138 0 221 122.5t83 327.5q0 122 -28 210l-243 -247l-33 -34z" />
<glyph unicode="&#xf9;" d="M164 974q42 -7 96 -7q53 0 95 7q-7 -28 -10 -63t-4 -113l-3 -311v-120q0 -133 62.5 -208t173.5 -75q123 0 186.5 83.5t63.5 244.5v75q0 174 -4 311q-2 80 -5 115t-8 61q42 -7 95 -7t95 7q-8 -45 -11 -115.5t-3 -236.5v-451q0 -46 3 -81.5t11 -94.5q-38 5 -87 5 q-48 0 -86 -5q5 28 8 63.5t7 112.5v1q-28 -46 -65 -85q-109 -113 -272 -113q-148 0 -235 94t-87 254l1 165q0 174 -4 311q-2 80 -5 115t-8 61zM323 1374l4 34q64 -13 109.5 -13t107.5 13q41 -95 77 -163t94 -161h-71q-97 96 -170 162q-63 57 -151 128z" />
<glyph unicode="&#xfa;" d="M164 974q42 -7 96 -7q53 0 95 7q-7 -28 -10 -63t-4 -113l-3 -311v-120q0 -133 62.5 -208t173.5 -75q123 0 186.5 83.5t63.5 244.5v75q0 174 -4 311q-2 80 -5 115t-8 61q42 -7 95 -7t95 7q-8 -45 -11 -115.5t-3 -236.5v-451q0 -46 3 -81.5t11 -94.5q-38 5 -87 5 q-48 0 -86 -5q5 28 8 63.5t7 112.5v1q-28 -46 -65 -85q-109 -113 -272 -113q-148 0 -235 94t-87 254l1 165q0 174 -4 311q-2 80 -5 115t-8 61zM475 1084q59 93 95.5 161t78.5 163q63 -13 109 -13t111 13l3 -34q-90 -70 -156 -128q-73 -65 -167 -162h-74z" />
<glyph unicode="&#xfb;" d="M164 974q42 -7 96 -7q53 0 95 7q-7 -28 -10 -63t-4 -113l-3 -311v-120q0 -133 62.5 -208t173.5 -75q123 0 186.5 83.5t63.5 244.5v75q0 174 -4 311q-2 80 -5 115t-8 61q42 -7 95 -7t95 7q-8 -45 -11 -115.5t-3 -236.5v-451q0 -46 3 -81.5t11 -94.5q-38 5 -87 5 q-48 0 -86 -5q5 28 8 63.5t7 112.5v1q-28 -46 -65 -85q-109 -113 -272 -113q-148 0 -235 94t-87 254l1 165q0 174 -4 311q-2 80 -5 115t-8 61zM292 1126q13 6 40 37l81 91q68 80 109 138h58h58q39 -58 107 -138l83 -92q11 -12 22.5 -22.5t17.5 -13.5q-36 -14 -61 -27 t-57 -35q-5 12 -24.5 40.5t-43.5 57.5l-102 126l-102 -126q-25 -31 -45.5 -59t-24.5 -38q-32 21 -56 34t-60 27z" />
<glyph unicode="&#xfc;" d="M164 974q42 -7 96 -7q53 0 95 7q-7 -28 -10 -63t-4 -113l-3 -311v-120q0 -133 62.5 -208t173.5 -75q123 0 186.5 83.5t63.5 244.5v75q0 174 -4 311q-2 80 -5 115t-8 61q42 -7 95 -7t95 7q-8 -45 -11 -115.5t-3 -236.5v-451q0 -46 3 -81.5t11 -94.5q-38 5 -87 5 q-48 0 -86 -5q5 28 8 63.5t7 112.5v1q-28 -46 -65 -85q-109 -113 -272 -113q-148 0 -235 94t-87 254l1 165q0 174 -4 311q-2 80 -5 115t-8 61zM277 1231q0 41 28 69.5t69 28.5t69 -28.5t28 -69.5t-28 -69t-69 -28t-69 28t-28 69zM688 1231q0 41 28 69.5t69 28.5t69 -28.5 t28 -69.5t-28 -69t-69 -28t-69 28t-28 69z" />
<glyph unicode="&#xfd;" horiz-adv-x="1020" d="M30 974q51 -5 116 -5q64 0 115 5q5 -58 19.5 -107.5t51.5 -138.5l104 -251l116 -269l27 62l141 352q56 142 77 212.5t26 139.5q39 -5 89 -5t89 5q-12 -17 -31 -52l-61 -124l-234 -514q-131 -297 -221 -529q-27 -68 -39 -103.5t-20 -72.5q-39 5 -89 5t-89 -5 q39 52 62 87.5t52 88.5l133 242q-77 200 -202 486l-141 315q-40 84 -58 119t-33 57zM447 1084q59 93 95.5 161t78.5 163q63 -13 109 -13t111 13l3 -34q-90 -70 -156 -128q-73 -65 -167 -162h-74z" />
<glyph unicode="&#xfe;" d="M146 -425q10 67 13 137.5t3 214.5v1246q0 160 -3 230.5t-13 121.5q43 -7 97 -7t96 7q-10 -51 -13 -121.5t-3 -230.5v-352l22 27q119 146 310 146q185 0 300 -130.5t115 -340.5q0 -244 -126 -396t-329 -152q-173 0 -281 137l-11 14v-199q0 -145 3 -215t13 -137 q-43 5 -97 5t-96 -5zM315 467q0 -199 71.5 -306.5t203.5 -107.5q144 0 219 113t75 331q0 201 -72 310t-205 109q-143 0 -217.5 -114.5t-74.5 -334.5z" />
<glyph unicode="&#xff;" horiz-adv-x="1020" d="M30 974q51 -5 116 -5q64 0 115 5q5 -58 19.5 -107.5t51.5 -138.5l104 -251l116 -269l27 62l141 352q56 142 77 212.5t26 139.5q39 -5 89 -5t89 5q-12 -17 -31 -52l-61 -124l-234 -514q-131 -297 -221 -529q-27 -68 -39 -103.5t-20 -72.5q-39 5 -89 5t-89 -5 q39 52 62 87.5t52 88.5l133 242q-77 200 -202 486l-141 315q-40 84 -58 119t-33 57zM249 1231q0 41 28 69.5t69 28.5t69 -28.5t28 -69.5t-28 -69t-69 -28t-69 28t-28 69zM660 1231q0 41 28 69.5t69 28.5t69 -28.5t28 -69.5t-28 -69t-69 -28t-69 28t-28 69z" />
<glyph unicode="&#x131;" horiz-adv-x="566" d="M189 -5q5 26 8 61t5 115q4 139 4 316q0 174 -4 311q-2 80 -5 115t-8 61q42 -7 96 -7q53 0 95 7q-7 -28 -10 -63.5t-4 -112.5l-3 -311q0 -177 4 -316q2 -80 5 -115t8 -61q-42 5 -96 5q-53 0 -95 -5z" />
<glyph unicode="&#x152;" horiz-adv-x="1888" d="M89 677q0 333 201 540t524 207q57 0 116.5 -3t89.5 -8q37 -6 76.5 -10t59.5 -4h108h244q93 0 166.5 4t127.5 13q-6 -31 -6 -70t6 -69q-35 8 -123 13.5t-171 5.5h-72q-95 1 -175 -3q-6 -221 -7 -514l181 1q90 0 184.5 5t130.5 12q-6 -29 -6 -67t6 -67q-36 7 -130.5 12 t-184.5 5l-180 1q-1 -335 6 -579q64 -6 137 -4h68q93 0 194 6.5t142 14.5q-6 -31 -6 -71q0 -39 6 -70q-43 7 -131.5 12t-162.5 5l-244 5h-57q-36 0 -84 -4t-82 -9q-33 -5 -105.5 -8.5t-143.5 -3.5q-313 0 -508 194.5t-195 507.5zM299 682q0 -281 146.5 -449.5t389.5 -168.5 q83 1 155 20q50 13 68 37q17 23 18 79q4 219 4 499q0 285 -4 504q-1 55 -18.5 77.5t-69.5 35.5q-73 19 -153 19q-243 0 -389.5 -178t-146.5 -475z" />
<glyph unicode="&#x153;" horiz-adv-x="1813" d="M74 476q0 231 141 375q141 143 367 143q212 0 344 -139q21 -22 38 -46l34 42q126 143 329 143h2q205 0 313 -116q95 -102 107 -285q3 -35 3 -72l-2 -55v-1q-45 7 -146 12t-202 5h-348v-38q0 -190 86.5 -293t245.5 -103q95 0 177 38t151 114l18 -23q-7 -26 -11 -44.5 t-7 -45.5q-79 -56 -173.5 -84t-202.5 -28q-208 0 -337 139q-23 25 -42 52l-42 -48q-140 -143 -367 -143q-212 0 -344 139t-132 362zM260 470q0 -203 79.5 -312.5t226.5 -109.5q139 0 222.5 122.5t83.5 327.5q0 203 -80 313q-79 110 -226 110q-139 0 -222.5 -123t-83.5 -328z M1059 569h505v40q0 140 -66 226t-174 86q-134 0 -202 -121q-48 -84 -63 -231z" />
<glyph unicode="&#x178;" horiz-adv-x="1246" d="M32 1404q55 -5 126 -5t126 5q19 -56 43.5 -106.5t78.5 -145.5l76 -138q100 -178 179 -306q76 122 167 288l86 156q48 84 71.5 134.5t46.5 117.5q40 -5 90 -5t89 5q-10 -11 -43 -62l-122 -190l-118 -189l-207 -348v-116q0 -236 3 -336.5t13 -167.5q-46 5 -104 5t-104 -5 q10 67 13 167.5t3 336.5v74l-221 375l-127 204l-122 190q-33 51 -43 62zM302 1668q0 43 29.5 72.5t71.5 29.5t71.5 -29.5t29.5 -72.5q0 -42 -29.5 -71.5t-71.5 -29.5t-71.5 29.5t-29.5 71.5zM737 1668q0 43 29.5 72.5t71.5 29.5t71.5 -29.5t29.5 -72.5q0 -42 -29.5 -71.5 t-71.5 -29.5t-71.5 29.5t-29.5 71.5z" />
<glyph unicode="&#x2c6;" d="M284 1126q13 6 40 37l81 91q68 80 109 138h58h58q39 -58 107 -138l83 -92q11 -12 22.5 -22.5t17.5 -13.5q-36 -14 -61 -27t-57 -35q-5 12 -24.5 40.5t-43.5 57.5l-102 126l-102 -126q-25 -31 -45.5 -59t-24.5 -38q-32 22 -56 35t-60 26z" />
<glyph unicode="&#x2dc;" d="M288 1139q18 79 64 133.5t96 54.5q19 0 55.5 -6.5t90.5 -19.5q37 -9 73.5 -15t52.5 -6q31 0 51.5 9.5t43.5 35.5h53q-17 -78 -63.5 -132t-96.5 -54q-22 0 -58.5 6.5t-87.5 19.5q-39 10 -75.5 17t-50.5 7q-31 0 -51.5 -10.5t-43.5 -39.5h-53z" />
<glyph unicode="&#x2013;" d="M62 417v115h1018v-115h-1018z" />
<glyph unicode="&#x2014;" horiz-adv-x="1813" d="M62 417v115h1690v-115h-1690z" />
<glyph unicode="&#x2018;" horiz-adv-x="566" d="M145 928.5q-8 33.5 13 80.5l12 22l243 403l44 -20l-140 -449l-10 -24q-21 -46 -51.5 -62t-66.5 0t-44 49.5z" />
<glyph unicode="&#x2019;" horiz-adv-x="566" d="M154 889l142 449l9 24q21 46 52 62t66 0t43.5 -49.5t-12.5 -80.5l-12 -22l-242 -404z" />
<glyph unicode="&#x201a;" horiz-adv-x="566" d="M82 -331l140 448l9 24q21 46 52 62.5t67 0.5q35 -17 43.5 -50.5t-12.5 -80.5l-12 -22l-243 -402z" />
<glyph unicode="&#x201c;" horiz-adv-x="868" d="M145 932.5q-9 36.5 14 86.5q5 14 13 23l242 393l48 -22l-134 -441l-9 -26q-23 -50 -56 -67.5t-71 0.5q-38 17 -47 53.5zM439 932.5q-9 36.5 14 86.5q5 14 13 23l242 393l48 -22l-134 -441l-9 -26q-23 -50 -56 -67.5t-71 0.5q-38 17 -47 53.5z" />
<glyph unicode="&#x201d;" horiz-adv-x="868" d="M144 890l135 441l9 26q23 50 56 67t71 0t46 -54q9 -35 -13 -86q-5 -14 -13 -23l-241 -394zM439 890l135 441l9 26q23 50 56 67t71 0t46 -54q9 -35 -13 -86q-5 -14 -13 -23l-241 -394z" />
<glyph unicode="&#x201e;" horiz-adv-x="868" d="M98 -330l134 441l9 26q23 50 56 67.5t71 -0.5q38 -17 47 -53.5t-14 -86.5q-5 -14 -13 -23l-242 -393zM393 -330l134 441l9 26q23 50 56 67.5t71 -0.5q38 -17 47 -53.5t-14 -86.5q-5 -14 -13 -23l-242 -393z" />
<glyph unicode="&#x2022;" horiz-adv-x="1020" d="M140 733q0 155 107.5 262.5t262.5 107.5t262.5 -107.5t107.5 -262.5t-107.5 -262.5t-262.5 -107.5t-262.5 107.5t-107.5 262.5z" />
<glyph unicode="&#x2026;" horiz-adv-x="1813" d="M196 103q0 43 30 73t73 30t73 -30t30 -73t-30 -73t-73 -30t-73 30t-30 73zM805 103q0 43 30 73t73 30t73 -30t30 -73t-30 -73t-73 -30t-73 30t-30 73zM1415 103q0 43 30 73t73 30t73 -30t30 -73t-30 -73t-73 -30t-73 30t-30 73z" />
<glyph unicode="&#x2039;" horiz-adv-x="453" d="M81 485q53 66 123 173t109 183q23 -32 44 -49t58 -31q-74 -98 -174 -251l-17 -27l15 -24q100 -154 176 -250q-37 -10 -59 -25q-23 -15 -48 -46q-37 75 -105 179t-122 168z" />
<glyph unicode="&#x203a;" horiz-adv-x="453" d="M43 209q74 97 175 251l18 28q-10 9 -17 23q-101 154 -176 250q37 10 59 25q24 15 49 46q37 -75 105 -179t122 -168q-54 -66 -124 -173q-70 -106 -109 -182q-24 31 -45 48q-21 16 -57 31z" />
<glyph unicode="&#x20ac;" d="M22 511q12 30 19 53q7 22 13 54q9 -3 40 -5l65 -1v30q0 50 4 96h-30q-37 0 -69.5 -1.5t-41.5 -4.5q12 30 19 53q7 22 13 54q9 -3 40 -4.5t67 -1.5h14q37 197 151 338q167 207 424 207q91 0 178 -23.5t171 -71.5q-16 -47 -25.5 -82t-20.5 -84h-32q-52 86 -124 129t-163 43 q-180 0 -276 -162q-66 -112 -88 -294h397q61 0 110.5 1.5t59.5 4.5q-11 -30 -18 -52q-7 -23 -14 -55q-9 3 -57 4.5t-109 1.5h-375l-2 -76v-50h341q62 0 111.5 1.5t58.5 4.5q-11 -30 -18 -52q-7 -23 -14 -55q-10 3 -58 4.5t-108 1.5h-305q19 -182 93 -298q101 -158 283 -158 q85 0 168.5 40.5t136.5 106.5l17 -21q-7 -34 -11 -59t-6 -60q-81 -49 -167.5 -72.5t-188.5 -23.5q-239 0 -388 186q-116 146 -141 359h-33q-37 0 -69.5 -1.5t-41.5 -4.5z" />
<glyph unicode="&#x2122;" horiz-adv-x="1246" d="M76 1299v89h393v-89h-152v-518h-89v518h-152zM532 781v607h160l112 -486l112 486h160v-607h-89v559l-129 -559h-108l-129 559v-559h-89z" />
<glyph unicode="&#x2215;" horiz-adv-x="189" d="M-430 -25q5 5 48 66l418 626l408 636q37 59 40 68q37 -4 63 -4t63 4q-4 -3 -48 -66l-418 -626l-408 -636q-37 -57 -40 -68q-37 4 -63 4t-63 -4z" />
<glyph unicode="&#xe000;" horiz-adv-x="975" d="M0 975h975v-975h-975v975z" />
<glyph unicode="&#xfb01;" horiz-adv-x="1095" d="M53 864q3 36 3 62t-3 62q17 -8 42 -13.5t44 -5.5h51q-2 214 116.5 388t268.5 174q22 1 46 -8q-6 -52 -6 -89q0 -38 6 -91q-62 35 -125 34q-119 0 -150.5 -86.5t2.5 -321.5h47q50 0 99.5 5.5t71.5 13.5q-4 -36 -4 -62t4 -62q-13 6 -34.5 10.5t-39.5 5.5l-145 4v-118 l5 -595q1 -74 3.5 -109t8.5 -67q-42 5 -96 5q-53 0 -95 -5q4 20 6.5 55.5t4.5 120.5q7 255 6 594v117l-63 -3q-19 -1 -40.5 -5.5t-33.5 -9.5zM744 1327q0 44 30 74t74 30t74 -30t30 -74t-30 -74t-74 -30t-74 30t-30 74zM750 -5q5 26 8 61t5 115q4 139 4 316q1 174 -4 311 q-4 88 -6.5 123t-6.5 53q42 -7 96 -7q53 0 95 7q-7 -28 -10 -63.5t-4 -112.5l-3 -311q0 -177 4 -316q2 -80 5 -115t8 -61q-42 5 -96 5q-53 0 -95 -5z" />
<glyph unicode="&#xfb02;" horiz-adv-x="1132" d="M760 -5q4 20 7 56q2 35 4 120q6 254 6 591l-5 587q-1 81 -3.5 116t-8.5 60q42 -7 96 -7q53 0 95 7q-4 -19 -6.5 -54t-5.5 -122q-5 -252 -5 -586l5 -592q1 -74 3.5 -109t8.5 -67q-42 5 -96 5q-53 0 -95 -5zM53 864q4 36 4 62t-4 62q17 -8 42 -13.5t44 -5.5h51 q-1 214 117 388t268 174h5l41 -8q-7 -52 -7 -89q0 -38 7 -91q-60 34 -122 34h-3q-119 0 -150 -87q-16 -41 -16 -117q0 -82 18 -204h47q50 0 99.5 5.5t71.5 13.5q-3 -36 -3 -62t3 -62q-12 6 -33.5 10.5t-40.5 5.5l-145 4v-118l5 -595q1 -74 3.5 -109t8.5 -67q-42 5 -96 5 q-53 0 -95 -5q4 21 6.5 56t4.5 120q6 223 6 511v83v117l-63 -3q-20 -1 -41.5 -5.5t-32.5 -9.5z" />
<glyph unicode="&#xfb03;" horiz-adv-x="1698" d="M1317 1327q0 44 30 74t74 30t74 -30t30 -74t-30 -74t-74 -30t-74 30t-30 74zM1323 -5q5 26 8 61t5 115q4 139 4 316q0 174 -4 311q-2 80 -5 115t-8 61q42 -7 96 -7q53 0 95 7q-7 -28 -10 -63.5t-4 -112.5l-3 -311q0 -177 4 -316q2 -80 5 -115t8 -61q-42 5 -96 5 q-53 0 -95 -5zM619 864q4 36 4 62t-4 62q17 -8 42 -13.5t44 -5.5h51q-1 214 117 388t268 174h5l41 -8q-7 -52 -7 -89q0 -38 7 -91q-60 34 -122 34h-3q-119 0 -150 -87q-16 -41 -16 -117q0 -82 18 -204h47q50 0 99.5 5.5t71.5 13.5q-3 -36 -3 -62t3 -62q-12 6 -33.5 10.5 t-40.5 5.5l-145 4v-118l5 -595q1 -74 3.5 -109t8.5 -67q-42 5 -96 5q-53 0 -95 -5q4 21 6.5 56t4.5 120q6 223 6 511v83v117l-63 -3q-20 -1 -41.5 -5.5t-32.5 -9.5zM53 864q4 36 4 62t-4 62q17 -8 42 -13.5t44 -5.5h51q-1 214 117 388t268 174h5l41 -8q-7 -52 -7 -89 q0 -38 7 -91q-60 34 -122 34h-3q-119 0 -150 -87q-16 -41 -16 -117q0 -82 18 -204h47q50 0 99.5 5.5t71.5 13.5q-3 -36 -3 -62t3 -62q-12 6 -33.5 10.5t-40.5 5.5l-145 4v-118l5 -595q1 -74 3.5 -109t8.5 -67q-42 5 -96 5q-53 0 -95 -5q4 21 6.5 56t4.5 120q6 223 6 511v83 v117l-63 -3q-20 -1 -41.5 -5.5t-32.5 -9.5z" />
<glyph unicode="&#xfb04;" horiz-adv-x="1698" d="M1326 -5q4 20 7 56q2 35 4 120q6 254 6 591l-5 587q-1 81 -3.5 116t-8.5 60q42 -7 96 -7q53 0 95 7q-4 -19 -6.5 -54t-5.5 -122q-5 -252 -5 -586l5 -592q1 -74 3.5 -109t8.5 -67q-42 5 -96 5q-53 0 -95 -5zM619 864q4 36 4 62t-4 62q17 -8 42 -13.5t44 -5.5h51 q-1 214 117 388t268 174h5l41 -8q-7 -52 -7 -89q0 -38 7 -91q-60 34 -122 34h-3q-119 0 -150 -87q-16 -41 -16 -117q0 -82 18 -204h47q50 0 99.5 5.5t71.5 13.5q-3 -36 -3 -62t3 -62q-12 6 -33.5 10.5t-40.5 5.5l-145 4v-118l5 -595q1 -74 3.5 -109t8.5 -67q-42 5 -96 5 q-53 0 -95 -5q4 21 6.5 56t4.5 120q6 223 6 511v83v117l-63 -3q-20 -1 -41.5 -5.5t-32.5 -9.5zM53 864q4 36 4 62t-4 62q17 -8 42 -13.5t44 -5.5h51q-1 214 117 388t268 174h5l41 -8q-7 -52 -7 -89q0 -38 7 -91q-60 34 -122 34h-3q-119 0 -150 -87q-16 -41 -16 -117 q0 -82 18 -204h47q50 0 99.5 5.5t71.5 13.5q-3 -36 -3 -62t3 -62q-12 6 -33.5 10.5t-40.5 5.5l-145 4v-118l5 -595q1 -74 3.5 -109t8.5 -67q-42 5 -96 5q-53 0 -95 -5q4 21 6.5 56t4.5 120q6 223 6 511v83v117l-63 -3q-20 -1 -41.5 -5.5t-32.5 -9.5z" />
<glyph horiz-adv-x="0" d="M-478 1051q0 201 138.5 339.5t338.5 138.5q201 0 339.5 -138.5t138.5 -339.5q0 -200 -138.5 -338.5t-339.5 -138.5q-200 0 -338.5 138.5t-138.5 338.5zM-413 1051q0 -173 119.5 -292.5t292.5 -119.5t293 119.5t120 292.5t-120 293t-293 120t-292.5 -120t-119.5 -293z" />
<glyph horiz-adv-x="0" d="M-244 1060q0 116 75.5 195.5t184.5 79.5q58 0 114.5 -22t79.5 -54l-58 -62q-19 26 -58.5 44.5t-77.5 18.5q-78 0 -131.5 -58t-53.5 -142t54.5 -141.5t133.5 -57.5q37 0 77 19.5t61 47.5l58 -62q-24 -34 -81 -57t-115 -23q-110 0 -186.5 79.5t-76.5 194.5z" />
<glyph horiz-adv-x="0" d="M-478 1046q0 201 138.5 339.5t338.5 138.5q201 0 339.5 -138.5t138.5 -339.5q0 -200 -138.5 -338.5t-339.5 -138.5q-200 0 -338.5 138.5t-138.5 338.5zM-413 1046q0 -173 119.5 -292.5t292.5 -119.5t293 119.5t120 292.5t-120 293t-293 120t-292.5 -120t-119.5 -293z" />
<glyph horiz-adv-x="0" d="M-160 807v506h187q62 0 104.5 -42.5t42.5 -104.5t-43 -105q-20 -20 -46 -31l89 -223h-91l-84 212h-84v-212h-75zM-85 1094h112q30 0 51 21t21 51t-21 51t-51 21h-112v-72v-72z" />
<glyph horiz-adv-x="755" d="M143 1237q71 21 172 62q103 43 168 79q-10 -162 -10 -405l3 -244q1 -69 3.5 -102t8.5 -62q-36 3 -81 3t-81 -3q6 30 9 63q2 33 3 101l3 244q0 153 -4 274q-79 -39 -132 -72z" />
<glyph horiz-adv-x="755" d="M34 774l424 590q41 -6 70 -6t69 6q-4 -12 -7 -55.5t-4 -94.5l-3 -247l1 -108h5q29 0 61 4.5t49 11.5q-4 -38 -4 -65q0 -28 4 -67q-17 7 -49 11.5t-61 4.5h-3v-30q1 -68 3.5 -101t8.5 -63q-34 3 -78 3t-78 -3q9 64 12 116l2 78h-412l-5 7zM193 859h264v377l-117 -162 q-84 -117 -147 -215z" />
<glyph horiz-adv-x="755" d="M143 1237q71 21 172 62q103 43 168 79q-10 -162 -10 -405l3 -244q1 -69 3.5 -102t8.5 -62q-36 3 -81 3t-81 -3q6 30 9 63q2 33 3 101l3 244q0 153 -4 274q-79 -39 -132 -72z" />
<glyph horiz-adv-x="755" d="M61 569l257 249q88 85 127 164t39 171q0 74 -31.5 112.5t-92.5 38.5q-51 0 -88 -35.5t-51 -98.5q-25 27 -45 44t-50 37q35 54 102.5 87t141.5 33q120 0 193 -61q73 -60 73 -159q0 -91 -53 -170q-52 -78 -209 -221l-100 -91l90 1h17q94 0 174.5 4.5t103.5 11.5 q-5 -39 -5 -68t5 -69q-11 4 -45.5 8t-73.5 6q-79 4 -174 4q-177 0 -295 -13l-5 7z" />
<glyph horiz-adv-x="755" d="M109 591q11 33 16 56.5t9 55.5q32 -43 72.5 -65t87.5 -22q90 0 142 48t52 132q0 72 -47 113q-34 29 -86 38q-19 3 -48.5 -0.5t-52.5 -12.5q4 28 4 48t-4 48q25 -9 54 -12t46 2q32 9 54 31q36 37 36 106q0 70 -29 107.5t-83 37.5q-43 0 -75 -23.5t-47 -66.5q-18 27 -34 45 t-41 40q36 35 92 54.5t120 19.5q116 0 182.5 -51t66.5 -140t-62 -140q-23 -18 -53 -31q48 -17 84 -46q73 -61 73 -159q0 -115 -92.5 -186t-241.5 -71q-53 0 -108.5 12.5t-86.5 31.5z" />
<glyph horiz-adv-x="755" d="M34 774l424 590q41 -6 70 -6t69 6q-4 -12 -7 -55.5t-4 -94.5l-3 -247l1 -108h5q29 0 61 4.5t49 11.5q-4 -38 -4 -65q0 -28 4 -67q-17 7 -49 11.5t-61 4.5h-3v-30q1 -68 3.5 -101t8.5 -63q-34 3 -78 3t-78 -3q9 64 12 116l2 78h-412l-5 7zM193 859h264v377l-117 -162 q-84 -117 -147 -215z" />
<glyph horiz-adv-x="0" d="M-272 286l3 54q71 -15 120.5 -15t114.5 15q41 -95 76 -163t91 -161h-95q-101 96 -179 162q-56 50 -131 108z" />
<glyph horiz-adv-x="0" d="M-97 16q57 93 93 161t77 163q65 -15 114.5 -15t120.5 15l2 -53l-137 -109q-76 -65 -175 -162h-95z" />
<glyph horiz-adv-x="0" d="M-334 96q7 3 24.5 15t35.5 28l83 72q82 75 133 129h58h58q49 -54 130 -128l85 -73q18 -15 35.5 -27.5t25.5 -15.5q-49 -19 -82 -37q-34 -18 -77 -49q-7 16 -34.5 54t-60.5 77l-80 95l-80 -95q-36 -42 -65 -79.5t-34 -49.5q-42 30 -75 48q-32 17 -80 36z" />
<glyph horiz-adv-x="0" d="M-315 82q20 84 70 142t103 58q22 0 62 -8t100 -24q41 -11 79.5 -19t53.5 -8q34 0 56.5 12.5t48.5 44.5l57 -9q-9 -83 -59.5 -140.5t-113.5 -57.5q-25 0 -65 8t-97 25q-42 12 -81 20.5t-52 8.5q-33 0 -55.5 -13.5t-49.5 -48.5z" />
<glyph horiz-adv-x="0" d="M-319 170q0 43 29.5 72.5t71.5 29.5t71.5 -29.5t29.5 -72.5q0 -42 -29.5 -71.5t-71.5 -29.5t-71.5 29.5t-29.5 71.5zM116 170q0 43 29.5 72.5t71.5 29.5t71.5 -29.5t29.5 -72.5q0 -42 -29.5 -71.5t-71.5 -29.5t-71.5 29.5t-29.5 71.5z" />
<glyph horiz-adv-x="0" d="M-171 183q0 72 49.5 122t121.5 50t122 -50t50 -122t-50 -121.5t-122 -49.5t-121.5 49.5t-49.5 121.5zM-79 183q0 -33 23 -56t56 -23q34 0 57 23t23 56q0 34 -23 57t-57 23q-33 0 -56 -23t-23 -57z" />
<glyph horiz-adv-x="0" d="M-348 -378l41 70q40 -32 93.5 -51.5t103 -19.5t79.5 24.5t30 65.5q0 32 -26 54.5t-64 22.5q-24 0 -43 -3.5t-27 -9.5l-29 35l139 224h102l-116 -165l45 1q67 0 109 -40.5t42 -105.5q0 -83 -63.5 -134t-166.5 -51q-70 0 -132 20.5t-117 62.5z" />
<glyph horiz-adv-x="0" d="M-257 306l4 34q64 -13 109.5 -13t107.5 13q41 -95 77 -163t94 -161h-71q-97 96 -170 162q-63 57 -151 128z" />
<glyph horiz-adv-x="0" d="M-105 16q59 93 95.5 161t78.5 163q63 -13 109 -13t111 13l3 -34q-90 -70 -156 -128q-73 -65 -167 -162h-74z" />
<glyph horiz-adv-x="0" d="M-288 58q13 6 40 37l81 91q68 80 109 138h58h58q39 -58 107 -138l83 -92q11 -12 22.5 -22.5t17.5 -13.5q-36 -14 -61 -27t-57 -35q-5 12 -24.5 40.5t-43.5 57.5l-102 126l-102 -126q-25 -31 -45.5 -59t-24.5 -38q-32 21 -56 34t-60 27z" />
<glyph horiz-adv-x="0" d="M-290 71q18 79 64 133.5t96 54.5q19 0 55.5 -6.5t90.5 -19.5q37 -9 73.5 -15t52.5 -6q31 0 51.5 9.5t43.5 35.5h53q-17 -78 -63.5 -132t-96.5 -54q-22 0 -58.5 6.5t-87.5 19.5q-39 10 -75.5 17t-50.5 7q-31 0 -51.5 -10.5t-43.5 -39.5h-53z" />
<glyph horiz-adv-x="0" d="M-303 163q0 41 28 69.5t69 28.5t69 -28.5t28 -69.5t-28 -69t-69 -28t-69 28t-28 69zM108 163q0 41 28 69.5t69 28.5t69 -28.5t28 -69.5t-28 -69t-69 -28t-69 28t-28 69z" />
<glyph horiz-adv-x="0" d="M-157 172q0 66 45.5 111.5t111.5 45.5t111.5 -45.5t45.5 -111.5t-45.5 -111.5t-111.5 -45.5t-111.5 45.5t-45.5 111.5zM-75 172q0 -31 21.5 -52.5t53.5 -21.5t53.5 21.5t21.5 52.5t-21.5 52.5t-53.5 21.5t-53.5 -21.5t-21.5 -52.5z" />
<glyph horiz-adv-x="0" d="M-332 -355l40 68q42 -32 96 -51.5t103.5 -19.5t80 24t30.5 64q0 34 -26.5 54.5t-71.5 20.5q-27 0 -48 -3.5t-30 -8.5l-27 29l104 178h77l-68 -117q29 4 60 3q69 0 111.5 -39t42.5 -102q0 -80 -63 -130t-165 -50q-61 0 -129 22t-117 58z" />
<glyph horiz-adv-x="0" d="M0 1299v89h393v-89h-152v-518h-89v518h-152z" />
<glyph horiz-adv-x="0" d="M0 781v607h160l112 -486l112 486h160v-607h-89v559l-129 -559h-108l-129 559v-559h-89z" />
</font>
</defs>
</svg>
